%TF.GenerationSoftware,KiCad,Pcbnew,8.0.7*%
%TF.CreationDate,2025-01-03T13:54:27+07:00*%
%TF.ProjectId,Project Air bersih,50726f6a-6563-4742-9041-697220626572,rev?*%
%TF.SameCoordinates,Original*%
%TF.FileFunction,Profile,NP*%
%FSLAX46Y46*%
G04 Gerber Fmt 4.6, Leading zero omitted, Abs format (unit mm)*
G04 Created by KiCad (PCBNEW 8.0.7) date 2025-01-03 13:54:27*
%MOMM*%
%LPD*%
G01*
G04 APERTURE LIST*
%TA.AperFunction,Profile*%
%ADD10C,0.200000*%
%TD*%
%ADD11C,0.300000*%
G04 APERTURE END LIST*
D10*
X113284000Y-35433000D02*
X162687000Y-35433000D01*
X162687000Y-88900000D01*
X113284000Y-88900000D01*
X113284000Y-35433000D01*
D11*
X138363803Y-26554139D02*
X138434995Y-26482474D01*
X138434995Y-26482474D02*
X138577615Y-26410573D01*
X138577615Y-26410573D02*
X138934756Y-26409392D01*
X138934756Y-26409392D02*
X139077849Y-26480347D01*
X139077849Y-26480347D02*
X139149513Y-26551539D01*
X139149513Y-26551539D02*
X139221414Y-26694159D01*
X139221414Y-26694159D02*
X139221887Y-26837015D01*
X139221887Y-26837015D02*
X139151168Y-27051536D01*
X139151168Y-27051536D02*
X138296866Y-27911511D01*
X138296866Y-27911511D02*
X139225433Y-27908438D01*
X139792367Y-26549412D02*
X139863558Y-26477747D01*
X139863558Y-26477747D02*
X140006178Y-26405846D01*
X140006178Y-26405846D02*
X140363319Y-26404664D01*
X140363319Y-26404664D02*
X140506412Y-26475620D01*
X140506412Y-26475620D02*
X140578077Y-26546812D01*
X140578077Y-26546812D02*
X140649978Y-26689432D01*
X140649978Y-26689432D02*
X140650450Y-26832288D01*
X140650450Y-26832288D02*
X140579731Y-27046809D01*
X140579731Y-27046809D02*
X139725429Y-27906783D01*
X139725429Y-27906783D02*
X140653996Y-27903711D01*
X141368041Y-27829919D02*
X141368277Y-27901347D01*
X141368277Y-27901347D02*
X141297322Y-28044440D01*
X141297322Y-28044440D02*
X141226130Y-28116104D01*
X142649021Y-26397101D02*
X142363308Y-26398046D01*
X142363308Y-26398046D02*
X142220688Y-26469947D01*
X142220688Y-26469947D02*
X142149496Y-26541612D01*
X142149496Y-26541612D02*
X142007349Y-26756369D01*
X142007349Y-26756369D02*
X141936866Y-27042318D01*
X141936866Y-27042318D02*
X141938757Y-27613744D01*
X141938757Y-27613744D02*
X142010658Y-27756364D01*
X142010658Y-27756364D02*
X142082323Y-27827555D01*
X142082323Y-27827555D02*
X142225416Y-27898511D01*
X142225416Y-27898511D02*
X142511128Y-27897565D01*
X142511128Y-27897565D02*
X142653748Y-27825665D01*
X142653748Y-27825665D02*
X142724940Y-27754000D01*
X142724940Y-27754000D02*
X142795896Y-27610907D01*
X142795896Y-27610907D02*
X142794714Y-27253766D01*
X142794714Y-27253766D02*
X142722813Y-27111146D01*
X142722813Y-27111146D02*
X142651148Y-27039955D01*
X142651148Y-27039955D02*
X142508056Y-26968999D01*
X142508056Y-26968999D02*
X142222343Y-26969945D01*
X142222343Y-26969945D02*
X142079723Y-27041845D01*
X142079723Y-27041845D02*
X142008531Y-27113510D01*
X142008531Y-27113510D02*
X141937576Y-27256603D01*
X144077584Y-26392374D02*
X143791871Y-26393319D01*
X143791871Y-26393319D02*
X143649251Y-26465220D01*
X143649251Y-26465220D02*
X143578060Y-26536885D01*
X143578060Y-26536885D02*
X143435912Y-26751642D01*
X143435912Y-26751642D02*
X143365430Y-27037591D01*
X143365430Y-27037591D02*
X143367321Y-27609016D01*
X143367321Y-27609016D02*
X143439221Y-27751636D01*
X143439221Y-27751636D02*
X143510886Y-27822828D01*
X143510886Y-27822828D02*
X143653979Y-27893784D01*
X143653979Y-27893784D02*
X143939691Y-27892838D01*
X143939691Y-27892838D02*
X144082311Y-27820937D01*
X144082311Y-27820937D02*
X144153503Y-27749273D01*
X144153503Y-27749273D02*
X144224459Y-27606180D01*
X144224459Y-27606180D02*
X144223277Y-27249039D01*
X144223277Y-27249039D02*
X144151376Y-27106419D01*
X144151376Y-27106419D02*
X144079711Y-27035227D01*
X144079711Y-27035227D02*
X143936619Y-26964272D01*
X143936619Y-26964272D02*
X143650906Y-26965217D01*
X143650906Y-26965217D02*
X143508286Y-27037118D01*
X143508286Y-27037118D02*
X143437094Y-27108783D01*
X143437094Y-27108783D02*
X143366139Y-27251875D01*
X145577576Y-26387410D02*
X144863294Y-26389774D01*
X144863294Y-26389774D02*
X144794229Y-27104292D01*
X144794229Y-27104292D02*
X144865421Y-27032627D01*
X144865421Y-27032627D02*
X145008041Y-26960726D01*
X145008041Y-26960726D02*
X145365182Y-26959545D01*
X145365182Y-26959545D02*
X145508275Y-27030500D01*
X145508275Y-27030500D02*
X145579939Y-27101692D01*
X145579939Y-27101692D02*
X145651840Y-27244312D01*
X145651840Y-27244312D02*
X145653022Y-27601453D01*
X145653022Y-27601453D02*
X145582066Y-27744546D01*
X145582066Y-27744546D02*
X145510875Y-27816210D01*
X145510875Y-27816210D02*
X145368255Y-27888111D01*
X145368255Y-27888111D02*
X145011114Y-27889293D01*
X145011114Y-27889293D02*
X144868021Y-27818337D01*
X144868021Y-27818337D02*
X144796356Y-27747146D01*
X147082530Y-27882438D02*
X146225392Y-27885275D01*
X146653961Y-27883857D02*
X146648998Y-26383865D01*
X146648998Y-26383865D02*
X146506851Y-26598622D01*
X146506851Y-26598622D02*
X146364467Y-26741951D01*
X146364467Y-26741951D02*
X146221847Y-26813852D01*
X148868234Y-27876529D02*
X148864925Y-26876535D01*
X148865398Y-27019391D02*
X148936590Y-26947727D01*
X148936590Y-26947727D02*
X149079210Y-26875826D01*
X149079210Y-26875826D02*
X149293494Y-26875117D01*
X149293494Y-26875117D02*
X149436587Y-26946072D01*
X149436587Y-26946072D02*
X149508488Y-27088692D01*
X149508488Y-27088692D02*
X149511088Y-27874402D01*
X149508488Y-27088692D02*
X149579444Y-26945599D01*
X149579444Y-26945599D02*
X149722064Y-26873698D01*
X149722064Y-26873698D02*
X149936348Y-26872989D01*
X149936348Y-26872989D02*
X150079441Y-26943945D01*
X150079441Y-26943945D02*
X150151342Y-27086565D01*
X150151342Y-27086565D02*
X150153942Y-27872275D01*
X150868223Y-27869911D02*
X150864914Y-26869917D01*
X150865387Y-27012773D02*
X150936579Y-26941109D01*
X150936579Y-26941109D02*
X151079199Y-26869208D01*
X151079199Y-26869208D02*
X151293484Y-26868499D01*
X151293484Y-26868499D02*
X151436576Y-26939454D01*
X151436576Y-26939454D02*
X151508477Y-27082074D01*
X151508477Y-27082074D02*
X151511077Y-27867784D01*
X151508477Y-27082074D02*
X151579433Y-26938981D01*
X151579433Y-26938981D02*
X151722053Y-26867080D01*
X151722053Y-26867080D02*
X151936337Y-26866371D01*
X151936337Y-26866371D02*
X152079430Y-26937327D01*
X152079430Y-26937327D02*
X152151331Y-27079947D01*
X152151331Y-27079947D02*
X152153931Y-27865657D01*
D10*
X156656345Y-36016003D02*
X156631097Y-28386097D01*
X133991345Y-36091003D02*
X133966097Y-28461097D01*
X156633038Y-28972513D02*
X133968038Y-29047513D01*
X156633038Y-28972513D02*
X133968038Y-29047513D01*
X156633038Y-28972513D02*
X155508481Y-29562658D01*
X156633038Y-28972513D02*
X155504600Y-28389823D01*
X133968038Y-29047513D02*
X135092595Y-28457368D01*
X133968038Y-29047513D02*
X135096476Y-29630203D01*
M02*
