%TF.GenerationSoftware,KiCad,Pcbnew,8.0.7*%
%TF.CreationDate,2025-01-03T13:54:27+07:00*%
%TF.ProjectId,Project Air bersih,50726f6a-6563-4742-9041-697220626572,rev?*%
%TF.SameCoordinates,Original*%
%TF.FileFunction,Legend,Top*%
%TF.FilePolarity,Positive*%
%FSLAX46Y46*%
G04 Gerber Fmt 4.6, Leading zero omitted, Abs format (unit mm)*
G04 Created by KiCad (PCBNEW 8.0.7) date 2025-01-03 13:54:27*
%MOMM*%
%LPD*%
G01*
G04 APERTURE LIST*
%ADD10C,0.150000*%
%ADD11C,0.120000*%
G04 APERTURE END LIST*
D10*
X134715819Y-75112428D02*
X134715819Y-74541000D01*
X135715819Y-74826714D02*
X134715819Y-74826714D01*
X135049152Y-73779095D02*
X135715819Y-73779095D01*
X135049152Y-74207666D02*
X135572961Y-74207666D01*
X135572961Y-74207666D02*
X135668200Y-74160047D01*
X135668200Y-74160047D02*
X135715819Y-74064809D01*
X135715819Y-74064809D02*
X135715819Y-73921952D01*
X135715819Y-73921952D02*
X135668200Y-73826714D01*
X135668200Y-73826714D02*
X135620580Y-73779095D01*
X135715819Y-73302904D02*
X135049152Y-73302904D01*
X135239628Y-73302904D02*
X135144390Y-73255285D01*
X135144390Y-73255285D02*
X135096771Y-73207666D01*
X135096771Y-73207666D02*
X135049152Y-73112428D01*
X135049152Y-73112428D02*
X135049152Y-73017190D01*
X135715819Y-72683856D02*
X134715819Y-72683856D01*
X135096771Y-72683856D02*
X135049152Y-72588618D01*
X135049152Y-72588618D02*
X135049152Y-72398142D01*
X135049152Y-72398142D02*
X135096771Y-72302904D01*
X135096771Y-72302904D02*
X135144390Y-72255285D01*
X135144390Y-72255285D02*
X135239628Y-72207666D01*
X135239628Y-72207666D02*
X135525342Y-72207666D01*
X135525342Y-72207666D02*
X135620580Y-72255285D01*
X135620580Y-72255285D02*
X135668200Y-72302904D01*
X135668200Y-72302904D02*
X135715819Y-72398142D01*
X135715819Y-72398142D02*
X135715819Y-72588618D01*
X135715819Y-72588618D02*
X135668200Y-72683856D01*
X135715819Y-71779094D02*
X135049152Y-71779094D01*
X134715819Y-71779094D02*
X134763438Y-71826713D01*
X134763438Y-71826713D02*
X134811057Y-71779094D01*
X134811057Y-71779094D02*
X134763438Y-71731475D01*
X134763438Y-71731475D02*
X134715819Y-71779094D01*
X134715819Y-71779094D02*
X134811057Y-71779094D01*
X135715819Y-70874333D02*
X134715819Y-70874333D01*
X135668200Y-70874333D02*
X135715819Y-70969571D01*
X135715819Y-70969571D02*
X135715819Y-71160047D01*
X135715819Y-71160047D02*
X135668200Y-71255285D01*
X135668200Y-71255285D02*
X135620580Y-71302904D01*
X135620580Y-71302904D02*
X135525342Y-71350523D01*
X135525342Y-71350523D02*
X135239628Y-71350523D01*
X135239628Y-71350523D02*
X135144390Y-71302904D01*
X135144390Y-71302904D02*
X135096771Y-71255285D01*
X135096771Y-71255285D02*
X135049152Y-71160047D01*
X135049152Y-71160047D02*
X135049152Y-70969571D01*
X135049152Y-70969571D02*
X135096771Y-70874333D01*
X135715819Y-70398142D02*
X135049152Y-70398142D01*
X134715819Y-70398142D02*
X134763438Y-70445761D01*
X134763438Y-70445761D02*
X134811057Y-70398142D01*
X134811057Y-70398142D02*
X134763438Y-70350523D01*
X134763438Y-70350523D02*
X134715819Y-70398142D01*
X134715819Y-70398142D02*
X134811057Y-70398142D01*
X135049152Y-70064809D02*
X135049152Y-69683857D01*
X134715819Y-69921952D02*
X135572961Y-69921952D01*
X135572961Y-69921952D02*
X135668200Y-69874333D01*
X135668200Y-69874333D02*
X135715819Y-69779095D01*
X135715819Y-69779095D02*
X135715819Y-69683857D01*
X135049152Y-69445761D02*
X135715819Y-69207666D01*
X135049152Y-68969571D02*
X135715819Y-69207666D01*
X135715819Y-69207666D02*
X135953914Y-69302904D01*
X135953914Y-69302904D02*
X136001533Y-69350523D01*
X136001533Y-69350523D02*
X136049152Y-69445761D01*
X135715819Y-68064809D02*
X135715819Y-68636237D01*
X135715819Y-68350523D02*
X134715819Y-68350523D01*
X134715819Y-68350523D02*
X134858676Y-68445761D01*
X134858676Y-68445761D02*
X134953914Y-68540999D01*
X134953914Y-68540999D02*
X135001533Y-68636237D01*
X129476104Y-46081856D02*
X129476104Y-45605666D01*
X129761819Y-46177094D02*
X128761819Y-45843761D01*
X128761819Y-45843761D02*
X129761819Y-45510428D01*
X129761819Y-45177094D02*
X128761819Y-45177094D01*
X128761819Y-45177094D02*
X128761819Y-44938999D01*
X128761819Y-44938999D02*
X128809438Y-44796142D01*
X128809438Y-44796142D02*
X128904676Y-44700904D01*
X128904676Y-44700904D02*
X128999914Y-44653285D01*
X128999914Y-44653285D02*
X129190390Y-44605666D01*
X129190390Y-44605666D02*
X129333247Y-44605666D01*
X129333247Y-44605666D02*
X129523723Y-44653285D01*
X129523723Y-44653285D02*
X129618961Y-44700904D01*
X129618961Y-44700904D02*
X129714200Y-44796142D01*
X129714200Y-44796142D02*
X129761819Y-44938999D01*
X129761819Y-44938999D02*
X129761819Y-45177094D01*
X129714200Y-44224713D02*
X129761819Y-44081856D01*
X129761819Y-44081856D02*
X129761819Y-43843761D01*
X129761819Y-43843761D02*
X129714200Y-43748523D01*
X129714200Y-43748523D02*
X129666580Y-43700904D01*
X129666580Y-43700904D02*
X129571342Y-43653285D01*
X129571342Y-43653285D02*
X129476104Y-43653285D01*
X129476104Y-43653285D02*
X129380866Y-43700904D01*
X129380866Y-43700904D02*
X129333247Y-43748523D01*
X129333247Y-43748523D02*
X129285628Y-43843761D01*
X129285628Y-43843761D02*
X129238009Y-44034237D01*
X129238009Y-44034237D02*
X129190390Y-44129475D01*
X129190390Y-44129475D02*
X129142771Y-44177094D01*
X129142771Y-44177094D02*
X129047533Y-44224713D01*
X129047533Y-44224713D02*
X128952295Y-44224713D01*
X128952295Y-44224713D02*
X128857057Y-44177094D01*
X128857057Y-44177094D02*
X128809438Y-44129475D01*
X128809438Y-44129475D02*
X128761819Y-44034237D01*
X128761819Y-44034237D02*
X128761819Y-43796142D01*
X128761819Y-43796142D02*
X128809438Y-43653285D01*
X129761819Y-42700904D02*
X129761819Y-43272332D01*
X129761819Y-42986618D02*
X128761819Y-42986618D01*
X128761819Y-42986618D02*
X128904676Y-43081856D01*
X128904676Y-43081856D02*
X128999914Y-43177094D01*
X128999914Y-43177094D02*
X129047533Y-43272332D01*
X129761819Y-41748523D02*
X129761819Y-42319951D01*
X129761819Y-42034237D02*
X128761819Y-42034237D01*
X128761819Y-42034237D02*
X128904676Y-42129475D01*
X128904676Y-42129475D02*
X128999914Y-42224713D01*
X128999914Y-42224713D02*
X129047533Y-42319951D01*
X128761819Y-40843761D02*
X128761819Y-41319951D01*
X128761819Y-41319951D02*
X129238009Y-41367570D01*
X129238009Y-41367570D02*
X129190390Y-41319951D01*
X129190390Y-41319951D02*
X129142771Y-41224713D01*
X129142771Y-41224713D02*
X129142771Y-40986618D01*
X129142771Y-40986618D02*
X129190390Y-40891380D01*
X129190390Y-40891380D02*
X129238009Y-40843761D01*
X129238009Y-40843761D02*
X129333247Y-40796142D01*
X129333247Y-40796142D02*
X129571342Y-40796142D01*
X129571342Y-40796142D02*
X129666580Y-40843761D01*
X129666580Y-40843761D02*
X129714200Y-40891380D01*
X129714200Y-40891380D02*
X129761819Y-40986618D01*
X129761819Y-40986618D02*
X129761819Y-41224713D01*
X129761819Y-41224713D02*
X129714200Y-41319951D01*
X129714200Y-41319951D02*
X129666580Y-41367570D01*
X158924666Y-34970819D02*
X158924666Y-35685104D01*
X158924666Y-35685104D02*
X158877047Y-35827961D01*
X158877047Y-35827961D02*
X158781809Y-35923200D01*
X158781809Y-35923200D02*
X158638952Y-35970819D01*
X158638952Y-35970819D02*
X158543714Y-35970819D01*
X159924666Y-35970819D02*
X159353238Y-35970819D01*
X159638952Y-35970819D02*
X159638952Y-34970819D01*
X159638952Y-34970819D02*
X159543714Y-35113676D01*
X159543714Y-35113676D02*
X159448476Y-35208914D01*
X159448476Y-35208914D02*
X159353238Y-35256533D01*
X135588819Y-59213904D02*
X134588819Y-59213904D01*
X134588819Y-59213904D02*
X134588819Y-58832952D01*
X134588819Y-58832952D02*
X134636438Y-58737714D01*
X134636438Y-58737714D02*
X134684057Y-58690095D01*
X134684057Y-58690095D02*
X134779295Y-58642476D01*
X134779295Y-58642476D02*
X134922152Y-58642476D01*
X134922152Y-58642476D02*
X135017390Y-58690095D01*
X135017390Y-58690095D02*
X135065009Y-58737714D01*
X135065009Y-58737714D02*
X135112628Y-58832952D01*
X135112628Y-58832952D02*
X135112628Y-59213904D01*
X135588819Y-58213904D02*
X134588819Y-58213904D01*
X135065009Y-58213904D02*
X135065009Y-57642476D01*
X135588819Y-57642476D02*
X134588819Y-57642476D01*
X135588819Y-56642476D02*
X135588819Y-57213904D01*
X135588819Y-56928190D02*
X134588819Y-56928190D01*
X134588819Y-56928190D02*
X134731676Y-57023428D01*
X134731676Y-57023428D02*
X134826914Y-57118666D01*
X134826914Y-57118666D02*
X134874533Y-57213904D01*
D11*
%TO.C,Ultrasonic1*%
X119270000Y-40604000D02*
X116770000Y-40604000D01*
X116770000Y-40604000D02*
X116770000Y-43104000D01*
X121090000Y-40904000D02*
X117070000Y-40904000D01*
X119380000Y-40904000D02*
X119380000Y-41404000D01*
X118570000Y-40904000D02*
X118570000Y-41904000D01*
X117070000Y-40904000D02*
X117070000Y-53624000D01*
X120590000Y-41404000D02*
X120590000Y-53124000D01*
X119380000Y-41404000D02*
X120590000Y-41404000D01*
X118570000Y-41904000D02*
X117070000Y-41904000D01*
X118570000Y-52624000D02*
X117070000Y-52624000D01*
X120590000Y-53124000D02*
X119380000Y-53124000D01*
X119380000Y-53124000D02*
X119380000Y-53624000D01*
X121090000Y-53624000D02*
X121090000Y-40904000D01*
X118570000Y-53624000D02*
X118570000Y-52624000D01*
X117070000Y-53624000D02*
X121090000Y-53624000D01*
%TO.C,Turbidity1*%
X132351000Y-66131000D02*
X129851000Y-66131000D01*
X129851000Y-66131000D02*
X129851000Y-68631000D01*
X134171000Y-66431000D02*
X130151000Y-66431000D01*
X132461000Y-66431000D02*
X132461000Y-66931000D01*
X131651000Y-66431000D02*
X131651000Y-67431000D01*
X130151000Y-66431000D02*
X130151000Y-76651000D01*
X133671000Y-66931000D02*
X133671000Y-76151000D01*
X132461000Y-66931000D02*
X133671000Y-66931000D01*
X131651000Y-67431000D02*
X130151000Y-67431000D01*
X131651000Y-75651000D02*
X130151000Y-75651000D01*
X133671000Y-76151000D02*
X132461000Y-76151000D01*
X132461000Y-76151000D02*
X132461000Y-76651000D01*
X134171000Y-76651000D02*
X134171000Y-66431000D01*
X131651000Y-76651000D02*
X131651000Y-75651000D01*
X130151000Y-76651000D02*
X134171000Y-76651000D01*
%TO.C,ADS115*%
X132407000Y-50919000D02*
X134317000Y-50919000D01*
X134317000Y-50919000D02*
X134317000Y-49009000D01*
X130407000Y-50609000D02*
X134007000Y-50609000D01*
X131957000Y-50609000D02*
X131957000Y-50309000D01*
X132707000Y-50609000D02*
X132707000Y-50309000D01*
X134007000Y-50609000D02*
X134007000Y-36259000D01*
X130857000Y-50309000D02*
X130857000Y-50009000D01*
X131957000Y-50309000D02*
X130857000Y-50309000D01*
X132707000Y-50309000D02*
X133707000Y-50309000D01*
X133707000Y-50309000D02*
X133707000Y-36559000D01*
X130857000Y-50009000D02*
X130407000Y-50009000D01*
X130857000Y-50009000D02*
X130857000Y-48809000D01*
X130557000Y-48809000D02*
X130557000Y-48059000D01*
X130857000Y-48809000D02*
X130557000Y-48809000D01*
X130557000Y-48059000D02*
X130857000Y-48059000D01*
X130857000Y-48059000D02*
X130857000Y-38809000D01*
X130557000Y-38809000D02*
X130557000Y-38059000D01*
X130857000Y-38809000D02*
X130557000Y-38809000D01*
X130557000Y-38059000D02*
X130857000Y-38059000D01*
X130857000Y-38059000D02*
X130857000Y-36859000D01*
X130857000Y-36859000D02*
X130407000Y-36859000D01*
X130857000Y-36559000D02*
X130857000Y-36859000D01*
X131957000Y-36559000D02*
X130857000Y-36559000D01*
X132707000Y-36559000D02*
X132707000Y-36259000D01*
X133707000Y-36559000D02*
X132707000Y-36559000D01*
X130407000Y-36259000D02*
X130407000Y-50609000D01*
X131957000Y-36259000D02*
X131957000Y-36559000D01*
X134007000Y-36259000D02*
X130407000Y-36259000D01*
%TO.C,J1*%
X156658000Y-36516000D02*
X157988000Y-36516000D01*
X156658000Y-37846000D02*
X156658000Y-36516000D01*
X156658000Y-39116000D02*
X156658000Y-87436000D01*
X156658000Y-39116000D02*
X159258000Y-39116000D01*
X156658000Y-87436000D02*
X161858000Y-87436000D01*
X159258000Y-36516000D02*
X161858000Y-36516000D01*
X159258000Y-39116000D02*
X159258000Y-36516000D01*
X161858000Y-36516000D02*
X161858000Y-87436000D01*
%TO.C,PH1*%
X132224000Y-52542000D02*
X129724000Y-52542000D01*
X129724000Y-52542000D02*
X129724000Y-55042000D01*
X134044000Y-52842000D02*
X130024000Y-52842000D01*
X132334000Y-52842000D02*
X132334000Y-53342000D01*
X131524000Y-52842000D02*
X131524000Y-53842000D01*
X130024000Y-52842000D02*
X130024000Y-63062000D01*
X133544000Y-53342000D02*
X133544000Y-62562000D01*
X132334000Y-53342000D02*
X133544000Y-53342000D01*
X131524000Y-53842000D02*
X130024000Y-53842000D01*
X131524000Y-62062000D02*
X130024000Y-62062000D01*
X133544000Y-62562000D02*
X132334000Y-62562000D01*
X132334000Y-62562000D02*
X132334000Y-63062000D01*
X134044000Y-63062000D02*
X134044000Y-52842000D01*
X131524000Y-63062000D02*
X131524000Y-62062000D01*
X130024000Y-63062000D02*
X134044000Y-63062000D01*
%TD*%
M02*
