%TF.GenerationSoftware,KiCad,Pcbnew,8.0.7*%
%TF.CreationDate,2025-01-03T13:54:27+07:00*%
%TF.ProjectId,Project Air bersih,50726f6a-6563-4742-9041-697220626572,rev?*%
%TF.SameCoordinates,Original*%
%TF.FileFunction,Copper,L1,Top*%
%TF.FilePolarity,Positive*%
%FSLAX46Y46*%
G04 Gerber Fmt 4.6, Leading zero omitted, Abs format (unit mm)*
G04 Created by KiCad (PCBNEW 8.0.7) date 2025-01-03 13:54:27*
%MOMM*%
%LPD*%
G01*
G04 APERTURE LIST*
G04 Aperture macros list*
%AMRoundRect*
0 Rectangle with rounded corners*
0 $1 Rounding radius*
0 $2 $3 $4 $5 $6 $7 $8 $9 X,Y pos of 4 corners*
0 Add a 4 corners polygon primitive as box body*
4,1,4,$2,$3,$4,$5,$6,$7,$8,$9,$2,$3,0*
0 Add four circle primitives for the rounded corners*
1,1,$1+$1,$2,$3*
1,1,$1+$1,$4,$5*
1,1,$1+$1,$6,$7*
1,1,$1+$1,$8,$9*
0 Add four rect primitives between the rounded corners*
20,1,$1+$1,$2,$3,$4,$5,0*
20,1,$1+$1,$4,$5,$6,$7,0*
20,1,$1+$1,$6,$7,$8,$9,0*
20,1,$1+$1,$8,$9,$2,$3,0*%
G04 Aperture macros list end*
%TA.AperFunction,ComponentPad*%
%ADD10RoundRect,0.250000X-0.725000X0.600000X-0.725000X-0.600000X0.725000X-0.600000X0.725000X0.600000X0*%
%TD*%
%TA.AperFunction,ComponentPad*%
%ADD11O,1.950000X1.700000*%
%TD*%
%TA.AperFunction,ComponentPad*%
%ADD12RoundRect,0.225000X0.475000X-0.225000X0.475000X0.225000X-0.475000X0.225000X-0.475000X-0.225000X0*%
%TD*%
%TA.AperFunction,ComponentPad*%
%ADD13O,1.400000X0.900000*%
%TD*%
%TA.AperFunction,ComponentPad*%
%ADD14R,1.700000X1.700000*%
%TD*%
%TA.AperFunction,ComponentPad*%
%ADD15O,1.700000X1.700000*%
%TD*%
%TA.AperFunction,ViaPad*%
%ADD16C,0.600000*%
%TD*%
G04 APERTURE END LIST*
D10*
%TO.P,Ultrasonic1,1,Pin_1*%
%TO.N,SDA*%
X119380000Y-43514000D03*
D11*
%TO.P,Ultrasonic1,2,Pin_2*%
%TO.N,SCL*%
X119380000Y-46014000D03*
%TO.P,Ultrasonic1,3,Pin_3*%
%TO.N,GND*%
X119380000Y-48514000D03*
%TO.P,Ultrasonic1,4,Pin_4*%
%TO.N,+3.3V*%
X119380000Y-51014000D03*
%TD*%
D10*
%TO.P,Turbidity1,1,Pin_1*%
%TO.N,A1*%
X132461000Y-69041000D03*
D11*
%TO.P,Turbidity1,2,Pin_2*%
%TO.N,+3.3V*%
X132461000Y-71541000D03*
%TO.P,Turbidity1,3,Pin_3*%
%TO.N,GND*%
X132461000Y-74041000D03*
%TD*%
D12*
%TO.P,ADS115,1,Pin_1*%
%TO.N,+3.3V*%
X132707000Y-49059000D03*
D13*
%TO.P,ADS115,2,Pin_2*%
%TO.N,GND*%
X132707000Y-47809000D03*
%TO.P,ADS115,3,Pin_3*%
%TO.N,SCL*%
X132707000Y-46559000D03*
%TO.P,ADS115,4,Pin_4*%
%TO.N,SDA*%
X132707000Y-45309000D03*
%TO.P,ADS115,5,Pin_5*%
%TO.N,unconnected-(ADS115-Pin_5-Pad5)*%
X132707000Y-44059000D03*
%TO.P,ADS115,6,Pin_6*%
%TO.N,unconnected-(ADS115-Pin_6-Pad6)*%
X132707000Y-42809000D03*
%TO.P,ADS115,7,Pin_7*%
%TO.N,A0*%
X132707000Y-41559000D03*
%TO.P,ADS115,8,Pin_8*%
%TO.N,A1*%
X132707000Y-40309000D03*
%TO.P,ADS115,9,Pin_9*%
%TO.N,unconnected-(ADS115-Pin_9-Pad9)*%
X132707000Y-39059000D03*
%TO.P,ADS115,10,Pin_10*%
%TO.N,unconnected-(ADS115-Pin_10-Pad10)*%
X132707000Y-37809000D03*
%TD*%
D14*
%TO.P,J1,1,3V3*%
%TO.N,+3.3V*%
X157988000Y-37846000D03*
D15*
%TO.P,J1,2,5V*%
%TO.N,Net-(J1-5V-Pad2)*%
X160528000Y-37846000D03*
%TO.P,J1,3,SDA/GPIO2*%
%TO.N,SDA*%
X157988000Y-40386000D03*
%TO.P,J1,4,5V*%
%TO.N,Net-(J1-5V-Pad2)*%
X160528000Y-40386000D03*
%TO.P,J1,5,SCL/GPIO3*%
%TO.N,SCL*%
X157988000Y-42926000D03*
%TO.P,J1,6,GND*%
%TO.N,GND*%
X160528000Y-42926000D03*
%TO.P,J1,7,GCLK0/GPIO4*%
%TO.N,unconnected-(J1-GCLK0{slash}GPIO4-Pad7)*%
X157988000Y-45466000D03*
%TO.P,J1,8,GPIO14/TXD*%
%TO.N,unconnected-(J1-GPIO14{slash}TXD-Pad8)*%
X160528000Y-45466000D03*
%TO.P,J1,9,GND*%
%TO.N,GND*%
X157988000Y-48006000D03*
%TO.P,J1,10,GPIO15/RXD*%
%TO.N,unconnected-(J1-GPIO15{slash}RXD-Pad10)*%
X160528000Y-48006000D03*
%TO.P,J1,11,GPIO17*%
%TO.N,unconnected-(J1-GPIO17-Pad11)*%
X157988000Y-50546000D03*
%TO.P,J1,12,GPIO18/PWM0*%
%TO.N,unconnected-(J1-GPIO18{slash}PWM0-Pad12)*%
X160528000Y-50546000D03*
%TO.P,J1,13,GPIO27*%
%TO.N,unconnected-(J1-GPIO27-Pad13)*%
X157988000Y-53086000D03*
%TO.P,J1,14,GND*%
%TO.N,GND*%
X160528000Y-53086000D03*
%TO.P,J1,15,GPIO22*%
%TO.N,unconnected-(J1-GPIO22-Pad15)*%
X157988000Y-55626000D03*
%TO.P,J1,16,GPIO23*%
%TO.N,unconnected-(J1-GPIO23-Pad16)*%
X160528000Y-55626000D03*
%TO.P,J1,17,3V3*%
%TO.N,+3.3V*%
X157988000Y-58166000D03*
%TO.P,J1,18,GPIO24*%
%TO.N,unconnected-(J1-GPIO24-Pad18)*%
X160528000Y-58166000D03*
%TO.P,J1,19,MOSI0/GPIO10*%
%TO.N,unconnected-(J1-MOSI0{slash}GPIO10-Pad19)*%
X157988000Y-60706000D03*
%TO.P,J1,20,GND*%
%TO.N,GND*%
X160528000Y-60706000D03*
%TO.P,J1,21,MISO0/GPIO9*%
%TO.N,unconnected-(J1-MISO0{slash}GPIO9-Pad21)*%
X157988000Y-63246000D03*
%TO.P,J1,22,GPIO25*%
%TO.N,unconnected-(J1-GPIO25-Pad22)*%
X160528000Y-63246000D03*
%TO.P,J1,23,SCLK0/GPIO11*%
%TO.N,unconnected-(J1-SCLK0{slash}GPIO11-Pad23)*%
X157988000Y-65786000D03*
%TO.P,J1,24,~{CE0}/GPIO8*%
%TO.N,unconnected-(J1-~{CE0}{slash}GPIO8-Pad24)*%
X160528000Y-65786000D03*
%TO.P,J1,25,GND*%
%TO.N,GND*%
X157988000Y-68326000D03*
%TO.P,J1,26,~{CE1}/GPIO7*%
%TO.N,unconnected-(J1-~{CE1}{slash}GPIO7-Pad26)*%
X160528000Y-68326000D03*
%TO.P,J1,27,ID_SD/GPIO0*%
%TO.N,unconnected-(J1-ID_SD{slash}GPIO0-Pad27)*%
X157988000Y-70866000D03*
%TO.P,J1,28,ID_SC/GPIO1*%
%TO.N,unconnected-(J1-ID_SC{slash}GPIO1-Pad28)*%
X160528000Y-70866000D03*
%TO.P,J1,29,GCLK1/GPIO5*%
%TO.N,unconnected-(J1-GCLK1{slash}GPIO5-Pad29)*%
X157988000Y-73406000D03*
%TO.P,J1,30,GND*%
%TO.N,GND*%
X160528000Y-73406000D03*
%TO.P,J1,31,GCLK2/GPIO6*%
%TO.N,unconnected-(J1-GCLK2{slash}GPIO6-Pad31)*%
X157988000Y-75946000D03*
%TO.P,J1,32,PWM0/GPIO12*%
%TO.N,unconnected-(J1-PWM0{slash}GPIO12-Pad32)*%
X160528000Y-75946000D03*
%TO.P,J1,33,PWM1/GPIO13*%
%TO.N,unconnected-(J1-PWM1{slash}GPIO13-Pad33)*%
X157988000Y-78486000D03*
%TO.P,J1,34,GND*%
%TO.N,GND*%
X160528000Y-78486000D03*
%TO.P,J1,35,GPIO19/MISO1*%
%TO.N,unconnected-(J1-GPIO19{slash}MISO1-Pad35)*%
X157988000Y-81026000D03*
%TO.P,J1,36,GPIO16*%
%TO.N,unconnected-(J1-GPIO16-Pad36)*%
X160528000Y-81026000D03*
%TO.P,J1,37,GPIO26*%
%TO.N,unconnected-(J1-GPIO26-Pad37)*%
X157988000Y-83566000D03*
%TO.P,J1,38,GPIO20/MOSI1*%
%TO.N,unconnected-(J1-GPIO20{slash}MOSI1-Pad38)*%
X160528000Y-83566000D03*
%TO.P,J1,39,GND*%
%TO.N,GND*%
X157988000Y-86106000D03*
%TO.P,J1,40,GPIO21/SCLK1*%
%TO.N,unconnected-(J1-GPIO21{slash}SCLK1-Pad40)*%
X160528000Y-86106000D03*
%TD*%
D10*
%TO.P,PH1,1,Pin_1*%
%TO.N,A0*%
X132334000Y-55452000D03*
D11*
%TO.P,PH1,2,Pin_2*%
%TO.N,+3.3V*%
X132334000Y-57952000D03*
%TO.P,PH1,3,Pin_3*%
%TO.N,GND*%
X132334000Y-60452000D03*
%TD*%
D16*
%TO.N,GND*%
X135064500Y-60388500D03*
%TD*%
M02*
