%TF.GenerationSoftware,KiCad,Pcbnew,8.0.7*%
%TF.CreationDate,2025-01-03T13:54:27+07:00*%
%TF.ProjectId,Project Air bersih,50726f6a-6563-4742-9041-697220626572,rev?*%
%TF.SameCoordinates,Original*%
%TF.FileFunction,Copper,L2,Bot*%
%TF.FilePolarity,Positive*%
%FSLAX46Y46*%
G04 Gerber Fmt 4.6, Leading zero omitted, Abs format (unit mm)*
G04 Created by KiCad (PCBNEW 8.0.7) date 2025-01-03 13:54:27*
%MOMM*%
%LPD*%
G01*
G04 APERTURE LIST*
G04 Aperture macros list*
%AMRoundRect*
0 Rectangle with rounded corners*
0 $1 Rounding radius*
0 $2 $3 $4 $5 $6 $7 $8 $9 X,Y pos of 4 corners*
0 Add a 4 corners polygon primitive as box body*
4,1,4,$2,$3,$4,$5,$6,$7,$8,$9,$2,$3,0*
0 Add four circle primitives for the rounded corners*
1,1,$1+$1,$2,$3*
1,1,$1+$1,$4,$5*
1,1,$1+$1,$6,$7*
1,1,$1+$1,$8,$9*
0 Add four rect primitives between the rounded corners*
20,1,$1+$1,$2,$3,$4,$5,0*
20,1,$1+$1,$4,$5,$6,$7,0*
20,1,$1+$1,$6,$7,$8,$9,0*
20,1,$1+$1,$8,$9,$2,$3,0*%
G04 Aperture macros list end*
%TA.AperFunction,ComponentPad*%
%ADD10RoundRect,0.250000X-0.725000X0.600000X-0.725000X-0.600000X0.725000X-0.600000X0.725000X0.600000X0*%
%TD*%
%TA.AperFunction,ComponentPad*%
%ADD11O,1.950000X1.700000*%
%TD*%
%TA.AperFunction,ComponentPad*%
%ADD12RoundRect,0.225000X0.475000X-0.225000X0.475000X0.225000X-0.475000X0.225000X-0.475000X-0.225000X0*%
%TD*%
%TA.AperFunction,ComponentPad*%
%ADD13O,1.400000X0.900000*%
%TD*%
%TA.AperFunction,ComponentPad*%
%ADD14R,1.700000X1.700000*%
%TD*%
%TA.AperFunction,ComponentPad*%
%ADD15O,1.700000X1.700000*%
%TD*%
%TA.AperFunction,ViaPad*%
%ADD16C,0.600000*%
%TD*%
%TA.AperFunction,Conductor*%
%ADD17C,0.200000*%
%TD*%
G04 APERTURE END LIST*
D10*
%TO.P,Ultrasonic1,1,Pin_1*%
%TO.N,SDA*%
X119380000Y-43514000D03*
D11*
%TO.P,Ultrasonic1,2,Pin_2*%
%TO.N,SCL*%
X119380000Y-46014000D03*
%TO.P,Ultrasonic1,3,Pin_3*%
%TO.N,GND*%
X119380000Y-48514000D03*
%TO.P,Ultrasonic1,4,Pin_4*%
%TO.N,+3.3V*%
X119380000Y-51014000D03*
%TD*%
D10*
%TO.P,Turbidity1,1,Pin_1*%
%TO.N,A1*%
X132461000Y-69041000D03*
D11*
%TO.P,Turbidity1,2,Pin_2*%
%TO.N,+3.3V*%
X132461000Y-71541000D03*
%TO.P,Turbidity1,3,Pin_3*%
%TO.N,GND*%
X132461000Y-74041000D03*
%TD*%
D12*
%TO.P,ADS115,1,Pin_1*%
%TO.N,+3.3V*%
X132707000Y-49059000D03*
D13*
%TO.P,ADS115,2,Pin_2*%
%TO.N,GND*%
X132707000Y-47809000D03*
%TO.P,ADS115,3,Pin_3*%
%TO.N,SCL*%
X132707000Y-46559000D03*
%TO.P,ADS115,4,Pin_4*%
%TO.N,SDA*%
X132707000Y-45309000D03*
%TO.P,ADS115,5,Pin_5*%
%TO.N,unconnected-(ADS115-Pin_5-Pad5)*%
X132707000Y-44059000D03*
%TO.P,ADS115,6,Pin_6*%
%TO.N,unconnected-(ADS115-Pin_6-Pad6)*%
X132707000Y-42809000D03*
%TO.P,ADS115,7,Pin_7*%
%TO.N,A0*%
X132707000Y-41559000D03*
%TO.P,ADS115,8,Pin_8*%
%TO.N,A1*%
X132707000Y-40309000D03*
%TO.P,ADS115,9,Pin_9*%
%TO.N,unconnected-(ADS115-Pin_9-Pad9)*%
X132707000Y-39059000D03*
%TO.P,ADS115,10,Pin_10*%
%TO.N,unconnected-(ADS115-Pin_10-Pad10)*%
X132707000Y-37809000D03*
%TD*%
D14*
%TO.P,J1,1,3V3*%
%TO.N,+3.3V*%
X157988000Y-37846000D03*
D15*
%TO.P,J1,2,5V*%
%TO.N,Net-(J1-5V-Pad2)*%
X160528000Y-37846000D03*
%TO.P,J1,3,SDA/GPIO2*%
%TO.N,SDA*%
X157988000Y-40386000D03*
%TO.P,J1,4,5V*%
%TO.N,Net-(J1-5V-Pad2)*%
X160528000Y-40386000D03*
%TO.P,J1,5,SCL/GPIO3*%
%TO.N,SCL*%
X157988000Y-42926000D03*
%TO.P,J1,6,GND*%
%TO.N,GND*%
X160528000Y-42926000D03*
%TO.P,J1,7,GCLK0/GPIO4*%
%TO.N,unconnected-(J1-GCLK0{slash}GPIO4-Pad7)*%
X157988000Y-45466000D03*
%TO.P,J1,8,GPIO14/TXD*%
%TO.N,unconnected-(J1-GPIO14{slash}TXD-Pad8)*%
X160528000Y-45466000D03*
%TO.P,J1,9,GND*%
%TO.N,GND*%
X157988000Y-48006000D03*
%TO.P,J1,10,GPIO15/RXD*%
%TO.N,unconnected-(J1-GPIO15{slash}RXD-Pad10)*%
X160528000Y-48006000D03*
%TO.P,J1,11,GPIO17*%
%TO.N,unconnected-(J1-GPIO17-Pad11)*%
X157988000Y-50546000D03*
%TO.P,J1,12,GPIO18/PWM0*%
%TO.N,unconnected-(J1-GPIO18{slash}PWM0-Pad12)*%
X160528000Y-50546000D03*
%TO.P,J1,13,GPIO27*%
%TO.N,unconnected-(J1-GPIO27-Pad13)*%
X157988000Y-53086000D03*
%TO.P,J1,14,GND*%
%TO.N,GND*%
X160528000Y-53086000D03*
%TO.P,J1,15,GPIO22*%
%TO.N,unconnected-(J1-GPIO22-Pad15)*%
X157988000Y-55626000D03*
%TO.P,J1,16,GPIO23*%
%TO.N,unconnected-(J1-GPIO23-Pad16)*%
X160528000Y-55626000D03*
%TO.P,J1,17,3V3*%
%TO.N,+3.3V*%
X157988000Y-58166000D03*
%TO.P,J1,18,GPIO24*%
%TO.N,unconnected-(J1-GPIO24-Pad18)*%
X160528000Y-58166000D03*
%TO.P,J1,19,MOSI0/GPIO10*%
%TO.N,unconnected-(J1-MOSI0{slash}GPIO10-Pad19)*%
X157988000Y-60706000D03*
%TO.P,J1,20,GND*%
%TO.N,GND*%
X160528000Y-60706000D03*
%TO.P,J1,21,MISO0/GPIO9*%
%TO.N,unconnected-(J1-MISO0{slash}GPIO9-Pad21)*%
X157988000Y-63246000D03*
%TO.P,J1,22,GPIO25*%
%TO.N,unconnected-(J1-GPIO25-Pad22)*%
X160528000Y-63246000D03*
%TO.P,J1,23,SCLK0/GPIO11*%
%TO.N,unconnected-(J1-SCLK0{slash}GPIO11-Pad23)*%
X157988000Y-65786000D03*
%TO.P,J1,24,~{CE0}/GPIO8*%
%TO.N,unconnected-(J1-~{CE0}{slash}GPIO8-Pad24)*%
X160528000Y-65786000D03*
%TO.P,J1,25,GND*%
%TO.N,GND*%
X157988000Y-68326000D03*
%TO.P,J1,26,~{CE1}/GPIO7*%
%TO.N,unconnected-(J1-~{CE1}{slash}GPIO7-Pad26)*%
X160528000Y-68326000D03*
%TO.P,J1,27,ID_SD/GPIO0*%
%TO.N,unconnected-(J1-ID_SD{slash}GPIO0-Pad27)*%
X157988000Y-70866000D03*
%TO.P,J1,28,ID_SC/GPIO1*%
%TO.N,unconnected-(J1-ID_SC{slash}GPIO1-Pad28)*%
X160528000Y-70866000D03*
%TO.P,J1,29,GCLK1/GPIO5*%
%TO.N,unconnected-(J1-GCLK1{slash}GPIO5-Pad29)*%
X157988000Y-73406000D03*
%TO.P,J1,30,GND*%
%TO.N,GND*%
X160528000Y-73406000D03*
%TO.P,J1,31,GCLK2/GPIO6*%
%TO.N,unconnected-(J1-GCLK2{slash}GPIO6-Pad31)*%
X157988000Y-75946000D03*
%TO.P,J1,32,PWM0/GPIO12*%
%TO.N,unconnected-(J1-PWM0{slash}GPIO12-Pad32)*%
X160528000Y-75946000D03*
%TO.P,J1,33,PWM1/GPIO13*%
%TO.N,unconnected-(J1-PWM1{slash}GPIO13-Pad33)*%
X157988000Y-78486000D03*
%TO.P,J1,34,GND*%
%TO.N,GND*%
X160528000Y-78486000D03*
%TO.P,J1,35,GPIO19/MISO1*%
%TO.N,unconnected-(J1-GPIO19{slash}MISO1-Pad35)*%
X157988000Y-81026000D03*
%TO.P,J1,36,GPIO16*%
%TO.N,unconnected-(J1-GPIO16-Pad36)*%
X160528000Y-81026000D03*
%TO.P,J1,37,GPIO26*%
%TO.N,unconnected-(J1-GPIO26-Pad37)*%
X157988000Y-83566000D03*
%TO.P,J1,38,GPIO20/MOSI1*%
%TO.N,unconnected-(J1-GPIO20{slash}MOSI1-Pad38)*%
X160528000Y-83566000D03*
%TO.P,J1,39,GND*%
%TO.N,GND*%
X157988000Y-86106000D03*
%TO.P,J1,40,GPIO21/SCLK1*%
%TO.N,unconnected-(J1-GPIO21{slash}SCLK1-Pad40)*%
X160528000Y-86106000D03*
%TD*%
D10*
%TO.P,PH1,1,Pin_1*%
%TO.N,A0*%
X132334000Y-55452000D03*
D11*
%TO.P,PH1,2,Pin_2*%
%TO.N,+3.3V*%
X132334000Y-57952000D03*
%TO.P,PH1,3,Pin_3*%
%TO.N,GND*%
X132334000Y-60452000D03*
%TD*%
D16*
%TO.N,GND*%
X135064500Y-60388500D03*
%TD*%
D17*
%TO.N,GND*%
X135636000Y-74041000D02*
X146050000Y-74041000D01*
X156083000Y-47809000D02*
X157791000Y-47809000D01*
X156083000Y-68326000D02*
X157988000Y-68326000D01*
X135382000Y-74041000D02*
X135636000Y-74041000D01*
X135064500Y-60388500D02*
X136398000Y-59055000D01*
%TO.N,+3.3V*%
X141605000Y-58166000D02*
X148463000Y-58166000D01*
X136017000Y-63754000D02*
X141605000Y-58166000D01*
X129159000Y-63754000D02*
X136017000Y-63754000D01*
X128651000Y-63246000D02*
X129159000Y-63754000D01*
X128651000Y-58547000D02*
X128651000Y-63246000D01*
X132334000Y-57952000D02*
X129246000Y-57952000D01*
X129246000Y-57952000D02*
X128651000Y-58547000D01*
%TO.N,GND*%
X116205000Y-49022000D02*
X116713000Y-48514000D01*
X116205000Y-53594000D02*
X116205000Y-49022000D01*
X124587000Y-54483000D02*
X117094000Y-54483000D01*
X135763000Y-51943000D02*
X127127000Y-51943000D01*
X127127000Y-51943000D02*
X124587000Y-54483000D01*
X136398000Y-52578000D02*
X135763000Y-51943000D01*
X136398000Y-59055000D02*
X136398000Y-52578000D01*
X135001000Y-60452000D02*
X135064500Y-60388500D01*
X132334000Y-60452000D02*
X135001000Y-60452000D01*
X117094000Y-54483000D02*
X116205000Y-53594000D01*
X116713000Y-48514000D02*
X119380000Y-48514000D01*
%TO.N,+3.3V*%
X147320000Y-70485000D02*
X147320000Y-58206000D01*
X146304000Y-71501000D02*
X147320000Y-70485000D01*
X132501000Y-71501000D02*
X146304000Y-71501000D01*
X132461000Y-71541000D02*
X132501000Y-71501000D01*
%TO.N,GND*%
X151765000Y-68326000D02*
X156083000Y-68326000D01*
X146050000Y-74041000D02*
X151765000Y-68326000D01*
X132461000Y-74041000D02*
X135382000Y-74041000D01*
%TO.N,A1*%
X127939000Y-40309000D02*
X132707000Y-40309000D01*
X126619000Y-38989000D02*
X127939000Y-40309000D01*
X116205000Y-38989000D02*
X126619000Y-38989000D01*
X114173000Y-41021000D02*
X116205000Y-38989000D01*
X114173000Y-67945000D02*
X114173000Y-41021000D01*
X115316000Y-69088000D02*
X114173000Y-67945000D01*
X132414000Y-69088000D02*
X115316000Y-69088000D01*
X132461000Y-69041000D02*
X132414000Y-69088000D01*
%TO.N,+3.3V*%
X148463000Y-58166000D02*
X157988000Y-58166000D01*
X147574000Y-58166000D02*
X148463000Y-58166000D01*
X147129500Y-57721500D02*
X147320000Y-57912000D01*
X138467000Y-49059000D02*
X147129500Y-57721500D01*
X147320000Y-57912000D02*
X147574000Y-58166000D01*
%TO.N,A0*%
X128397000Y-41529000D02*
X132677000Y-41529000D01*
X126619000Y-39751000D02*
X128397000Y-41529000D01*
X116459000Y-39751000D02*
X126619000Y-39751000D01*
X115189000Y-54229000D02*
X115189000Y-41021000D01*
X115189000Y-41021000D02*
X116459000Y-39751000D01*
X116412000Y-55452000D02*
X115189000Y-54229000D01*
X132677000Y-41529000D02*
X132707000Y-41559000D01*
X132334000Y-55452000D02*
X116412000Y-55452000D01*
%TO.N,+3.3V*%
X132670000Y-49022000D02*
X132707000Y-49059000D01*
X130683000Y-49022000D02*
X132670000Y-49022000D01*
X128691000Y-51014000D02*
X130683000Y-49022000D01*
X119380000Y-51014000D02*
X128691000Y-51014000D01*
%TO.N,GND*%
X132637000Y-47879000D02*
X132707000Y-47809000D01*
X130429000Y-47879000D02*
X132637000Y-47879000D01*
X129794000Y-48514000D02*
X130429000Y-47879000D01*
X119380000Y-48514000D02*
X129794000Y-48514000D01*
%TO.N,SCL*%
X132657000Y-46609000D02*
X132707000Y-46559000D01*
X130175000Y-46609000D02*
X132657000Y-46609000D01*
X129580000Y-46014000D02*
X130175000Y-46609000D01*
X119380000Y-46014000D02*
X129580000Y-46014000D01*
%TO.N,SDA*%
X130018000Y-45309000D02*
X132707000Y-45309000D01*
X128270000Y-43561000D02*
X130018000Y-45309000D01*
X119427000Y-43561000D02*
X128270000Y-43561000D01*
X119380000Y-43514000D02*
X119427000Y-43561000D01*
%TO.N,+3.3V*%
X132707000Y-49059000D02*
X138467000Y-49059000D01*
%TO.N,GND*%
X132707000Y-47809000D02*
X156083000Y-47809000D01*
X157791000Y-47809000D02*
X157988000Y-48006000D01*
%TO.N,SCL*%
X154051000Y-42672000D02*
X157734000Y-42672000D01*
X157734000Y-42672000D02*
X157988000Y-42926000D01*
X150164000Y-46559000D02*
X154051000Y-42672000D01*
X132707000Y-46559000D02*
X150164000Y-46559000D01*
%TO.N,SDA*%
X157607000Y-40767000D02*
X157988000Y-40386000D01*
X140081000Y-40767000D02*
X157607000Y-40767000D01*
X135539000Y-45309000D02*
X140081000Y-40767000D01*
X132707000Y-45309000D02*
X135539000Y-45309000D01*
%TO.N,SCL*%
X119380000Y-46014000D02*
X119413000Y-45981000D01*
%TO.N,GND*%
X157747000Y-48247000D02*
X157988000Y-48006000D01*
%TD*%
%TA.AperFunction,Conductor*%
%TO.N,GND*%
G36*
X162129539Y-35953185D02*
G01*
X162175294Y-36005989D01*
X162186500Y-36057500D01*
X162186500Y-88275500D01*
X162166815Y-88342539D01*
X162114011Y-88388294D01*
X162062500Y-88399500D01*
X113908500Y-88399500D01*
X113841461Y-88379815D01*
X113795706Y-88327011D01*
X113784500Y-88275500D01*
X113784500Y-68705097D01*
X113804185Y-68638058D01*
X113856989Y-68592303D01*
X113926147Y-68582359D01*
X113989703Y-68611384D01*
X113996181Y-68617416D01*
X114831139Y-69452374D01*
X114831149Y-69452385D01*
X114835479Y-69456715D01*
X114835480Y-69456716D01*
X114947284Y-69568520D01*
X114988122Y-69592097D01*
X115034095Y-69618639D01*
X115034097Y-69618641D01*
X115072151Y-69640611D01*
X115084215Y-69647577D01*
X115236943Y-69688500D01*
X130873266Y-69688500D01*
X130940305Y-69708185D01*
X130986060Y-69760989D01*
X130993255Y-69787465D01*
X130994585Y-69787181D01*
X130996001Y-69793799D01*
X131051185Y-69960331D01*
X131051187Y-69960336D01*
X131143289Y-70109657D01*
X131267344Y-70233712D01*
X131422120Y-70329178D01*
X131468845Y-70381126D01*
X131480068Y-70450088D01*
X131452224Y-70514171D01*
X131444706Y-70522398D01*
X131305889Y-70661215D01*
X131180951Y-70833179D01*
X131084444Y-71022585D01*
X131018753Y-71224760D01*
X131002138Y-71329663D01*
X130985500Y-71434713D01*
X130985500Y-71647287D01*
X131018754Y-71857243D01*
X131076423Y-72034730D01*
X131084444Y-72059414D01*
X131180951Y-72248820D01*
X131305890Y-72420786D01*
X131456209Y-72571105D01*
X131456214Y-72571109D01*
X131621218Y-72690991D01*
X131663884Y-72746320D01*
X131669863Y-72815934D01*
X131637258Y-72877729D01*
X131621218Y-72891627D01*
X131456540Y-73011272D01*
X131456535Y-73011276D01*
X131306276Y-73161535D01*
X131306272Y-73161540D01*
X131181379Y-73333442D01*
X131084904Y-73522782D01*
X131019242Y-73724870D01*
X131019242Y-73724873D01*
X131008769Y-73791000D01*
X132056854Y-73791000D01*
X132018370Y-73857657D01*
X131986000Y-73978465D01*
X131986000Y-74103535D01*
X132018370Y-74224343D01*
X132056854Y-74291000D01*
X131008769Y-74291000D01*
X131019242Y-74357126D01*
X131019242Y-74357129D01*
X131084904Y-74559217D01*
X131181379Y-74748557D01*
X131306272Y-74920459D01*
X131306276Y-74920464D01*
X131456535Y-75070723D01*
X131456540Y-75070727D01*
X131628442Y-75195620D01*
X131817782Y-75292095D01*
X132019872Y-75357757D01*
X132211000Y-75388029D01*
X132211000Y-74445145D01*
X132277657Y-74483630D01*
X132398465Y-74516000D01*
X132523535Y-74516000D01*
X132644343Y-74483630D01*
X132711000Y-74445145D01*
X132711000Y-75388028D01*
X132902127Y-75357757D01*
X133104217Y-75292095D01*
X133293557Y-75195620D01*
X133465459Y-75070727D01*
X133465464Y-75070723D01*
X133615723Y-74920464D01*
X133615727Y-74920459D01*
X133740620Y-74748557D01*
X133837095Y-74559217D01*
X133902757Y-74357129D01*
X133902757Y-74357126D01*
X133913231Y-74291000D01*
X132865146Y-74291000D01*
X132903630Y-74224343D01*
X132936000Y-74103535D01*
X132936000Y-73978465D01*
X132903630Y-73857657D01*
X132865146Y-73791000D01*
X133913231Y-73791000D01*
X133902757Y-73724873D01*
X133902757Y-73724870D01*
X133837095Y-73522782D01*
X133740620Y-73333442D01*
X133615727Y-73161540D01*
X133615723Y-73161535D01*
X133465464Y-73011276D01*
X133465459Y-73011272D01*
X133300781Y-72891627D01*
X133258115Y-72836297D01*
X133252136Y-72766684D01*
X133284741Y-72704889D01*
X133300776Y-72690994D01*
X133465792Y-72571104D01*
X133616104Y-72420792D01*
X133616106Y-72420788D01*
X133616109Y-72420786D01*
X133670899Y-72345371D01*
X133741051Y-72248816D01*
X133781615Y-72169205D01*
X133829590Y-72118409D01*
X133892100Y-72101500D01*
X146217331Y-72101500D01*
X146217347Y-72101501D01*
X146224943Y-72101501D01*
X146383054Y-72101501D01*
X146383057Y-72101501D01*
X146535785Y-72060577D01*
X146603435Y-72021519D01*
X146672716Y-71981520D01*
X146784520Y-71869716D01*
X146784520Y-71869714D01*
X146794724Y-71859511D01*
X146794728Y-71859506D01*
X147688713Y-70965521D01*
X147688716Y-70965520D01*
X147800520Y-70853716D01*
X147850639Y-70766904D01*
X147879577Y-70716785D01*
X147920501Y-70564057D01*
X147920501Y-70405943D01*
X147920501Y-70398348D01*
X147920500Y-70398330D01*
X147920500Y-58890500D01*
X147940185Y-58823461D01*
X147992989Y-58777706D01*
X148044500Y-58766500D01*
X148383943Y-58766500D01*
X156698909Y-58766500D01*
X156765948Y-58786185D01*
X156811292Y-58838097D01*
X156813965Y-58843830D01*
X156949501Y-59037396D01*
X156949506Y-59037402D01*
X157116597Y-59204493D01*
X157116603Y-59204498D01*
X157302158Y-59334425D01*
X157345783Y-59389002D01*
X157352977Y-59458500D01*
X157321454Y-59520855D01*
X157302158Y-59537575D01*
X157116597Y-59667505D01*
X156949505Y-59834597D01*
X156813965Y-60028169D01*
X156813964Y-60028171D01*
X156714098Y-60242335D01*
X156714094Y-60242344D01*
X156652938Y-60470586D01*
X156652936Y-60470596D01*
X156632341Y-60705999D01*
X156632341Y-60706000D01*
X156652936Y-60941403D01*
X156652938Y-60941413D01*
X156714094Y-61169655D01*
X156714096Y-61169659D01*
X156714097Y-61169663D01*
X156797155Y-61347781D01*
X156813965Y-61383830D01*
X156813967Y-61383834D01*
X156882510Y-61481723D01*
X156949501Y-61577396D01*
X156949506Y-61577402D01*
X157116597Y-61744493D01*
X157116603Y-61744498D01*
X157302158Y-61874425D01*
X157345783Y-61929002D01*
X157352977Y-61998500D01*
X157321454Y-62060855D01*
X157302158Y-62077575D01*
X157116597Y-62207505D01*
X156949505Y-62374597D01*
X156813965Y-62568169D01*
X156813964Y-62568171D01*
X156714098Y-62782335D01*
X156714094Y-62782344D01*
X156652938Y-63010586D01*
X156652936Y-63010596D01*
X156632341Y-63245999D01*
X156632341Y-63246000D01*
X156652936Y-63481403D01*
X156652938Y-63481413D01*
X156714094Y-63709655D01*
X156714096Y-63709659D01*
X156714097Y-63709663D01*
X156794004Y-63881023D01*
X156813965Y-63923830D01*
X156813967Y-63923834D01*
X156922281Y-64078521D01*
X156949505Y-64117401D01*
X157116599Y-64284495D01*
X157116601Y-64284496D01*
X157116603Y-64284498D01*
X157302158Y-64414425D01*
X157345783Y-64469002D01*
X157352977Y-64538500D01*
X157321454Y-64600855D01*
X157302158Y-64617575D01*
X157116597Y-64747505D01*
X156949505Y-64914597D01*
X156813965Y-65108169D01*
X156813964Y-65108171D01*
X156714098Y-65322335D01*
X156714094Y-65322344D01*
X156652938Y-65550586D01*
X156652936Y-65550596D01*
X156632341Y-65785999D01*
X156632341Y-65786000D01*
X156652936Y-66021403D01*
X156652938Y-66021413D01*
X156714094Y-66249655D01*
X156714096Y-66249659D01*
X156714097Y-66249663D01*
X156718000Y-66258032D01*
X156813965Y-66463830D01*
X156813967Y-66463834D01*
X156922281Y-66618521D01*
X156949501Y-66657396D01*
X156949506Y-66657402D01*
X157116597Y-66824493D01*
X157116603Y-66824498D01*
X157302594Y-66954730D01*
X157346219Y-67009307D01*
X157353413Y-67078805D01*
X157321890Y-67141160D01*
X157302595Y-67157880D01*
X157116922Y-67287890D01*
X157116920Y-67287891D01*
X156949891Y-67454920D01*
X156949886Y-67454926D01*
X156814400Y-67648420D01*
X156814399Y-67648422D01*
X156714570Y-67862507D01*
X156714567Y-67862513D01*
X156657364Y-68075999D01*
X156657364Y-68076000D01*
X157554988Y-68076000D01*
X157522075Y-68133007D01*
X157488000Y-68260174D01*
X157488000Y-68391826D01*
X157522075Y-68518993D01*
X157554988Y-68576000D01*
X156657364Y-68576000D01*
X156714567Y-68789486D01*
X156714570Y-68789492D01*
X156814399Y-69003578D01*
X156949894Y-69197082D01*
X157116917Y-69364105D01*
X157302595Y-69494119D01*
X157346219Y-69548696D01*
X157353412Y-69618195D01*
X157321890Y-69680549D01*
X157302595Y-69697269D01*
X157116594Y-69827508D01*
X156949505Y-69994597D01*
X156813965Y-70188169D01*
X156813964Y-70188171D01*
X156714098Y-70402335D01*
X156714094Y-70402344D01*
X156652938Y-70630586D01*
X156652936Y-70630596D01*
X156632341Y-70865999D01*
X156632341Y-70866000D01*
X156652936Y-71101403D01*
X156652938Y-71101413D01*
X156714094Y-71329655D01*
X156714096Y-71329659D01*
X156714097Y-71329663D01*
X156718000Y-71338032D01*
X156813965Y-71543830D01*
X156813967Y-71543834D01*
X156886406Y-71647287D01*
X156949501Y-71737396D01*
X156949506Y-71737402D01*
X157116597Y-71904493D01*
X157116603Y-71904498D01*
X157302158Y-72034425D01*
X157345783Y-72089002D01*
X157352977Y-72158500D01*
X157321454Y-72220855D01*
X157302158Y-72237575D01*
X157116597Y-72367505D01*
X156949505Y-72534597D01*
X156813965Y-72728169D01*
X156813964Y-72728171D01*
X156714098Y-72942335D01*
X156714094Y-72942344D01*
X156652938Y-73170586D01*
X156652936Y-73170596D01*
X156632341Y-73405999D01*
X156632341Y-73406000D01*
X156652936Y-73641403D01*
X156652938Y-73641413D01*
X156714094Y-73869655D01*
X156714096Y-73869659D01*
X156714097Y-73869663D01*
X156797155Y-74047781D01*
X156813965Y-74083830D01*
X156813967Y-74083834D01*
X156912353Y-74224343D01*
X156949501Y-74277396D01*
X156949506Y-74277402D01*
X157116597Y-74444493D01*
X157116603Y-74444498D01*
X157302158Y-74574425D01*
X157345783Y-74629002D01*
X157352977Y-74698500D01*
X157321454Y-74760855D01*
X157302158Y-74777575D01*
X157116597Y-74907505D01*
X156949505Y-75074597D01*
X156813965Y-75268169D01*
X156813964Y-75268171D01*
X156714098Y-75482335D01*
X156714094Y-75482344D01*
X156652938Y-75710586D01*
X156652936Y-75710596D01*
X156632341Y-75945999D01*
X156632341Y-75946000D01*
X156652936Y-76181403D01*
X156652938Y-76181413D01*
X156714094Y-76409655D01*
X156714096Y-76409659D01*
X156714097Y-76409663D01*
X156718000Y-76418032D01*
X156813965Y-76623830D01*
X156813967Y-76623834D01*
X156922281Y-76778521D01*
X156949501Y-76817396D01*
X156949506Y-76817402D01*
X157116597Y-76984493D01*
X157116603Y-76984498D01*
X157302158Y-77114425D01*
X157345783Y-77169002D01*
X157352977Y-77238500D01*
X157321454Y-77300855D01*
X157302158Y-77317575D01*
X157116597Y-77447505D01*
X156949505Y-77614597D01*
X156813965Y-77808169D01*
X156813964Y-77808171D01*
X156714098Y-78022335D01*
X156714094Y-78022344D01*
X156652938Y-78250586D01*
X156652936Y-78250596D01*
X156632341Y-78485999D01*
X156632341Y-78486000D01*
X156652936Y-78721403D01*
X156652938Y-78721413D01*
X156714094Y-78949655D01*
X156714096Y-78949659D01*
X156714097Y-78949663D01*
X156797155Y-79127781D01*
X156813965Y-79163830D01*
X156813967Y-79163834D01*
X156922281Y-79318521D01*
X156949501Y-79357396D01*
X156949506Y-79357402D01*
X157116597Y-79524493D01*
X157116603Y-79524498D01*
X157302158Y-79654425D01*
X157345783Y-79709002D01*
X157352977Y-79778500D01*
X157321454Y-79840855D01*
X157302158Y-79857575D01*
X157116597Y-79987505D01*
X156949505Y-80154597D01*
X156813965Y-80348169D01*
X156813964Y-80348171D01*
X156714098Y-80562335D01*
X156714094Y-80562344D01*
X156652938Y-80790586D01*
X156652936Y-80790596D01*
X156632341Y-81025999D01*
X156632341Y-81026000D01*
X156652936Y-81261403D01*
X156652938Y-81261413D01*
X156714094Y-81489655D01*
X156714096Y-81489659D01*
X156714097Y-81489663D01*
X156718000Y-81498032D01*
X156813965Y-81703830D01*
X156813967Y-81703834D01*
X156922281Y-81858521D01*
X156949501Y-81897396D01*
X156949506Y-81897402D01*
X157116597Y-82064493D01*
X157116603Y-82064498D01*
X157302158Y-82194425D01*
X157345783Y-82249002D01*
X157352977Y-82318500D01*
X157321454Y-82380855D01*
X157302158Y-82397575D01*
X157116597Y-82527505D01*
X156949505Y-82694597D01*
X156813965Y-82888169D01*
X156813964Y-82888171D01*
X156714098Y-83102335D01*
X156714094Y-83102344D01*
X156652938Y-83330586D01*
X156652936Y-83330596D01*
X156632341Y-83565999D01*
X156632341Y-83566000D01*
X156652936Y-83801403D01*
X156652938Y-83801413D01*
X156714094Y-84029655D01*
X156714096Y-84029659D01*
X156714097Y-84029663D01*
X156718000Y-84038032D01*
X156813965Y-84243830D01*
X156813967Y-84243834D01*
X156922281Y-84398521D01*
X156949501Y-84437396D01*
X156949506Y-84437402D01*
X157116597Y-84604493D01*
X157116603Y-84604498D01*
X157302594Y-84734730D01*
X157346219Y-84789307D01*
X157353413Y-84858805D01*
X157321890Y-84921160D01*
X157302595Y-84937880D01*
X157116922Y-85067890D01*
X157116920Y-85067891D01*
X156949891Y-85234920D01*
X156949886Y-85234926D01*
X156814400Y-85428420D01*
X156814399Y-85428422D01*
X156714570Y-85642507D01*
X156714567Y-85642513D01*
X156657364Y-85855999D01*
X156657364Y-85856000D01*
X157554988Y-85856000D01*
X157522075Y-85913007D01*
X157488000Y-86040174D01*
X157488000Y-86171826D01*
X157522075Y-86298993D01*
X157554988Y-86356000D01*
X156657364Y-86356000D01*
X156714567Y-86569486D01*
X156714570Y-86569492D01*
X156814399Y-86783578D01*
X156949894Y-86977082D01*
X157116917Y-87144105D01*
X157310421Y-87279600D01*
X157524507Y-87379429D01*
X157524516Y-87379433D01*
X157738000Y-87436634D01*
X157738000Y-86539012D01*
X157795007Y-86571925D01*
X157922174Y-86606000D01*
X158053826Y-86606000D01*
X158180993Y-86571925D01*
X158238000Y-86539012D01*
X158238000Y-87436633D01*
X158451483Y-87379433D01*
X158451492Y-87379429D01*
X158665578Y-87279600D01*
X158859082Y-87144105D01*
X159026105Y-86977082D01*
X159156119Y-86791405D01*
X159210696Y-86747781D01*
X159280195Y-86740588D01*
X159342549Y-86772110D01*
X159359269Y-86791405D01*
X159489505Y-86977401D01*
X159656599Y-87144495D01*
X159753384Y-87212265D01*
X159850165Y-87280032D01*
X159850167Y-87280033D01*
X159850170Y-87280035D01*
X160064337Y-87379903D01*
X160292592Y-87441063D01*
X160480918Y-87457539D01*
X160527999Y-87461659D01*
X160528000Y-87461659D01*
X160528001Y-87461659D01*
X160567234Y-87458226D01*
X160763408Y-87441063D01*
X160991663Y-87379903D01*
X161205830Y-87280035D01*
X161399401Y-87144495D01*
X161566495Y-86977401D01*
X161702035Y-86783830D01*
X161801903Y-86569663D01*
X161863063Y-86341408D01*
X161883659Y-86106000D01*
X161863063Y-85870592D01*
X161801903Y-85642337D01*
X161702035Y-85428171D01*
X161696731Y-85420595D01*
X161566494Y-85234597D01*
X161399402Y-85067506D01*
X161399396Y-85067501D01*
X161213842Y-84937575D01*
X161170217Y-84882998D01*
X161163023Y-84813500D01*
X161194546Y-84751145D01*
X161213842Y-84734425D01*
X161236026Y-84718891D01*
X161399401Y-84604495D01*
X161566495Y-84437401D01*
X161702035Y-84243830D01*
X161801903Y-84029663D01*
X161863063Y-83801408D01*
X161883659Y-83566000D01*
X161863063Y-83330592D01*
X161801903Y-83102337D01*
X161702035Y-82888171D01*
X161696425Y-82880158D01*
X161566494Y-82694597D01*
X161399402Y-82527506D01*
X161399396Y-82527501D01*
X161213842Y-82397575D01*
X161170217Y-82342998D01*
X161163023Y-82273500D01*
X161194546Y-82211145D01*
X161213842Y-82194425D01*
X161236026Y-82178891D01*
X161399401Y-82064495D01*
X161566495Y-81897401D01*
X161702035Y-81703830D01*
X161801903Y-81489663D01*
X161863063Y-81261408D01*
X161883659Y-81026000D01*
X161863063Y-80790592D01*
X161801903Y-80562337D01*
X161702035Y-80348171D01*
X161696425Y-80340158D01*
X161566494Y-80154597D01*
X161399402Y-79987506D01*
X161399401Y-79987505D01*
X161213405Y-79857269D01*
X161169781Y-79802692D01*
X161162588Y-79733193D01*
X161194110Y-79670839D01*
X161213405Y-79654119D01*
X161399082Y-79524105D01*
X161566105Y-79357082D01*
X161701600Y-79163578D01*
X161801429Y-78949492D01*
X161801432Y-78949486D01*
X161858636Y-78736000D01*
X160961012Y-78736000D01*
X160993925Y-78678993D01*
X161028000Y-78551826D01*
X161028000Y-78420174D01*
X160993925Y-78293007D01*
X160961012Y-78236000D01*
X161858636Y-78236000D01*
X161858635Y-78235999D01*
X161801432Y-78022513D01*
X161801429Y-78022507D01*
X161701600Y-77808422D01*
X161701599Y-77808420D01*
X161566113Y-77614926D01*
X161566108Y-77614920D01*
X161399078Y-77447890D01*
X161213405Y-77317879D01*
X161169780Y-77263302D01*
X161162588Y-77193804D01*
X161194110Y-77131449D01*
X161213406Y-77114730D01*
X161213842Y-77114425D01*
X161399401Y-76984495D01*
X161566495Y-76817401D01*
X161702035Y-76623830D01*
X161801903Y-76409663D01*
X161863063Y-76181408D01*
X161883659Y-75946000D01*
X161863063Y-75710592D01*
X161801903Y-75482337D01*
X161702035Y-75268171D01*
X161696425Y-75260158D01*
X161566494Y-75074597D01*
X161399402Y-74907506D01*
X161399401Y-74907505D01*
X161213405Y-74777269D01*
X161169781Y-74722692D01*
X161162588Y-74653193D01*
X161194110Y-74590839D01*
X161213405Y-74574119D01*
X161399082Y-74444105D01*
X161566105Y-74277082D01*
X161701600Y-74083578D01*
X161801429Y-73869492D01*
X161801432Y-73869486D01*
X161858636Y-73656000D01*
X160961012Y-73656000D01*
X160993925Y-73598993D01*
X161028000Y-73471826D01*
X161028000Y-73340174D01*
X160993925Y-73213007D01*
X160961012Y-73156000D01*
X161858636Y-73156000D01*
X161858635Y-73155999D01*
X161801432Y-72942513D01*
X161801429Y-72942507D01*
X161701600Y-72728422D01*
X161701599Y-72728420D01*
X161566113Y-72534926D01*
X161566108Y-72534920D01*
X161399078Y-72367890D01*
X161213405Y-72237879D01*
X161169780Y-72183302D01*
X161162588Y-72113804D01*
X161194110Y-72051449D01*
X161213406Y-72034730D01*
X161213842Y-72034425D01*
X161399401Y-71904495D01*
X161566495Y-71737401D01*
X161702035Y-71543830D01*
X161801903Y-71329663D01*
X161863063Y-71101408D01*
X161883659Y-70866000D01*
X161863063Y-70630592D01*
X161801903Y-70402337D01*
X161702035Y-70188171D01*
X161696425Y-70180158D01*
X161566494Y-69994597D01*
X161399402Y-69827506D01*
X161399396Y-69827501D01*
X161213842Y-69697575D01*
X161170217Y-69642998D01*
X161163023Y-69573500D01*
X161194546Y-69511145D01*
X161213842Y-69494425D01*
X161273897Y-69452374D01*
X161399401Y-69364495D01*
X161566495Y-69197401D01*
X161702035Y-69003830D01*
X161801903Y-68789663D01*
X161863063Y-68561408D01*
X161883659Y-68326000D01*
X161863063Y-68090592D01*
X161801903Y-67862337D01*
X161702035Y-67648171D01*
X161696731Y-67640595D01*
X161566494Y-67454597D01*
X161399402Y-67287506D01*
X161399396Y-67287501D01*
X161213842Y-67157575D01*
X161170217Y-67102998D01*
X161163023Y-67033500D01*
X161194546Y-66971145D01*
X161213842Y-66954425D01*
X161236026Y-66938891D01*
X161399401Y-66824495D01*
X161566495Y-66657401D01*
X161702035Y-66463830D01*
X161801903Y-66249663D01*
X161863063Y-66021408D01*
X161883659Y-65786000D01*
X161863063Y-65550592D01*
X161801903Y-65322337D01*
X161702035Y-65108171D01*
X161696425Y-65100158D01*
X161566494Y-64914597D01*
X161399402Y-64747506D01*
X161399396Y-64747501D01*
X161213842Y-64617575D01*
X161170217Y-64562998D01*
X161163023Y-64493500D01*
X161194546Y-64431145D01*
X161213842Y-64414425D01*
X161299422Y-64354501D01*
X161399401Y-64284495D01*
X161566495Y-64117401D01*
X161702035Y-63923830D01*
X161801903Y-63709663D01*
X161863063Y-63481408D01*
X161883659Y-63246000D01*
X161863063Y-63010592D01*
X161801903Y-62782337D01*
X161702035Y-62568171D01*
X161696425Y-62560158D01*
X161566494Y-62374597D01*
X161399402Y-62207506D01*
X161399401Y-62207505D01*
X161213405Y-62077269D01*
X161169781Y-62022692D01*
X161162588Y-61953193D01*
X161194110Y-61890839D01*
X161213405Y-61874119D01*
X161399082Y-61744105D01*
X161566105Y-61577082D01*
X161701600Y-61383578D01*
X161801429Y-61169492D01*
X161801432Y-61169486D01*
X161858636Y-60956000D01*
X160961012Y-60956000D01*
X160993925Y-60898993D01*
X161028000Y-60771826D01*
X161028000Y-60640174D01*
X160993925Y-60513007D01*
X160961012Y-60456000D01*
X161858636Y-60456000D01*
X161858635Y-60455999D01*
X161801432Y-60242513D01*
X161801429Y-60242507D01*
X161701600Y-60028422D01*
X161701599Y-60028420D01*
X161566113Y-59834926D01*
X161566108Y-59834920D01*
X161399078Y-59667890D01*
X161213405Y-59537879D01*
X161169780Y-59483302D01*
X161162588Y-59413804D01*
X161194110Y-59351449D01*
X161213406Y-59334730D01*
X161338273Y-59247297D01*
X161399401Y-59204495D01*
X161566495Y-59037401D01*
X161702035Y-58843830D01*
X161801903Y-58629663D01*
X161863063Y-58401408D01*
X161883659Y-58166000D01*
X161863063Y-57930592D01*
X161801903Y-57702337D01*
X161702035Y-57488171D01*
X161702034Y-57488169D01*
X161566494Y-57294597D01*
X161399402Y-57127506D01*
X161399396Y-57127501D01*
X161213842Y-56997575D01*
X161170217Y-56942998D01*
X161163023Y-56873500D01*
X161194546Y-56811145D01*
X161213842Y-56794425D01*
X161282357Y-56746450D01*
X161399401Y-56664495D01*
X161566495Y-56497401D01*
X161702035Y-56303830D01*
X161801903Y-56089663D01*
X161863063Y-55861408D01*
X161883659Y-55626000D01*
X161863063Y-55390592D01*
X161801903Y-55162337D01*
X161702035Y-54948171D01*
X161696425Y-54940158D01*
X161566494Y-54754597D01*
X161399402Y-54587506D01*
X161399401Y-54587505D01*
X161213405Y-54457269D01*
X161169781Y-54402692D01*
X161162588Y-54333193D01*
X161194110Y-54270839D01*
X161213405Y-54254119D01*
X161399082Y-54124105D01*
X161566105Y-53957082D01*
X161701600Y-53763578D01*
X161801429Y-53549492D01*
X161801432Y-53549486D01*
X161858636Y-53336000D01*
X160961012Y-53336000D01*
X160993925Y-53278993D01*
X161028000Y-53151826D01*
X161028000Y-53020174D01*
X160993925Y-52893007D01*
X160961012Y-52836000D01*
X161858636Y-52836000D01*
X161858635Y-52835999D01*
X161801432Y-52622513D01*
X161801429Y-52622507D01*
X161701600Y-52408422D01*
X161701599Y-52408420D01*
X161566113Y-52214926D01*
X161566108Y-52214920D01*
X161399078Y-52047890D01*
X161213405Y-51917879D01*
X161169780Y-51863302D01*
X161162588Y-51793804D01*
X161194110Y-51731449D01*
X161213406Y-51714730D01*
X161213842Y-51714425D01*
X161399401Y-51584495D01*
X161566495Y-51417401D01*
X161702035Y-51223830D01*
X161801903Y-51009663D01*
X161863063Y-50781408D01*
X161883659Y-50546000D01*
X161863063Y-50310592D01*
X161801903Y-50082337D01*
X161702035Y-49868171D01*
X161696425Y-49860158D01*
X161566494Y-49674597D01*
X161399402Y-49507506D01*
X161399396Y-49507501D01*
X161213842Y-49377575D01*
X161170217Y-49322998D01*
X161163023Y-49253500D01*
X161194546Y-49191145D01*
X161213842Y-49174425D01*
X161236026Y-49158891D01*
X161399401Y-49044495D01*
X161566495Y-48877401D01*
X161702035Y-48683830D01*
X161801903Y-48469663D01*
X161863063Y-48241408D01*
X161883659Y-48006000D01*
X161863063Y-47770592D01*
X161801903Y-47542337D01*
X161702035Y-47328171D01*
X161696731Y-47320595D01*
X161566494Y-47134597D01*
X161399402Y-46967506D01*
X161399396Y-46967501D01*
X161213842Y-46837575D01*
X161170217Y-46782998D01*
X161163023Y-46713500D01*
X161194546Y-46651145D01*
X161213842Y-46634425D01*
X161242298Y-46614500D01*
X161399401Y-46504495D01*
X161566495Y-46337401D01*
X161702035Y-46143830D01*
X161801903Y-45929663D01*
X161863063Y-45701408D01*
X161883659Y-45466000D01*
X161863063Y-45230592D01*
X161801903Y-45002337D01*
X161702035Y-44788171D01*
X161696425Y-44780158D01*
X161566494Y-44594597D01*
X161399402Y-44427506D01*
X161399401Y-44427505D01*
X161213405Y-44297269D01*
X161169781Y-44242692D01*
X161162588Y-44173193D01*
X161194110Y-44110839D01*
X161213405Y-44094119D01*
X161399082Y-43964105D01*
X161566105Y-43797082D01*
X161701600Y-43603578D01*
X161801429Y-43389492D01*
X161801432Y-43389486D01*
X161858636Y-43176000D01*
X160961012Y-43176000D01*
X160993925Y-43118993D01*
X161028000Y-42991826D01*
X161028000Y-42860174D01*
X160993925Y-42733007D01*
X160961012Y-42676000D01*
X161858636Y-42676000D01*
X161858635Y-42675999D01*
X161801432Y-42462513D01*
X161801429Y-42462507D01*
X161701600Y-42248422D01*
X161701599Y-42248420D01*
X161566113Y-42054926D01*
X161566108Y-42054920D01*
X161399078Y-41887890D01*
X161213405Y-41757879D01*
X161169780Y-41703302D01*
X161162588Y-41633804D01*
X161194110Y-41571449D01*
X161213406Y-41554730D01*
X161213842Y-41554425D01*
X161399401Y-41424495D01*
X161566495Y-41257401D01*
X161702035Y-41063830D01*
X161801903Y-40849663D01*
X161863063Y-40621408D01*
X161883659Y-40386000D01*
X161863063Y-40150592D01*
X161801903Y-39922337D01*
X161702035Y-39708171D01*
X161696425Y-39700158D01*
X161566494Y-39514597D01*
X161399402Y-39347506D01*
X161399396Y-39347501D01*
X161213842Y-39217575D01*
X161170217Y-39162998D01*
X161163023Y-39093500D01*
X161194546Y-39031145D01*
X161213842Y-39014425D01*
X161236026Y-38998891D01*
X161399401Y-38884495D01*
X161566495Y-38717401D01*
X161702035Y-38523830D01*
X161801903Y-38309663D01*
X161863063Y-38081408D01*
X161883659Y-37846000D01*
X161863063Y-37610592D01*
X161801903Y-37382337D01*
X161702035Y-37168171D01*
X161633786Y-37070700D01*
X161566494Y-36974597D01*
X161399402Y-36807506D01*
X161399395Y-36807501D01*
X161205834Y-36671967D01*
X161205830Y-36671965D01*
X161161604Y-36651342D01*
X160991663Y-36572097D01*
X160991659Y-36572096D01*
X160991655Y-36572094D01*
X160763413Y-36510938D01*
X160763403Y-36510936D01*
X160528001Y-36490341D01*
X160527999Y-36490341D01*
X160292596Y-36510936D01*
X160292586Y-36510938D01*
X160064344Y-36572094D01*
X160064335Y-36572098D01*
X159850171Y-36671964D01*
X159850169Y-36671965D01*
X159656600Y-36807503D01*
X159534673Y-36929430D01*
X159473350Y-36962914D01*
X159403658Y-36957930D01*
X159347725Y-36916058D01*
X159330810Y-36885081D01*
X159281797Y-36753671D01*
X159281793Y-36753664D01*
X159195547Y-36638455D01*
X159195544Y-36638452D01*
X159080335Y-36552206D01*
X159080328Y-36552202D01*
X158945482Y-36501908D01*
X158945483Y-36501908D01*
X158885883Y-36495501D01*
X158885881Y-36495500D01*
X158885873Y-36495500D01*
X158885865Y-36495500D01*
X157287653Y-36495500D01*
X157220614Y-36475815D01*
X157174859Y-36423011D01*
X157164915Y-36353853D01*
X157180060Y-36309858D01*
X157216686Y-36245934D01*
X157256052Y-36097049D01*
X157257103Y-36093074D01*
X157256987Y-36057910D01*
X157276450Y-35990805D01*
X157329102Y-35944876D01*
X157380986Y-35933500D01*
X162062500Y-35933500D01*
X162129539Y-35953185D01*
G37*
%TD.AperFunction*%
%TA.AperFunction,Conductor*%
G36*
X126385942Y-40371185D02*
G01*
X126406583Y-40387818D01*
X128028284Y-42009520D01*
X128028286Y-42009521D01*
X128028290Y-42009524D01*
X128106923Y-42054922D01*
X128165216Y-42088577D01*
X128317943Y-42129501D01*
X128317945Y-42129501D01*
X128483654Y-42129501D01*
X128483670Y-42129500D01*
X131535882Y-42129500D01*
X131602921Y-42149185D01*
X131648676Y-42201989D01*
X131658620Y-42271147D01*
X131638985Y-42322390D01*
X131614680Y-42358764D01*
X131614676Y-42358771D01*
X131543027Y-42531748D01*
X131543025Y-42531756D01*
X131506500Y-42715379D01*
X131506500Y-42902620D01*
X131543025Y-43086243D01*
X131543027Y-43086251D01*
X131614676Y-43259228D01*
X131614680Y-43259235D01*
X131685423Y-43365110D01*
X131706300Y-43431787D01*
X131687815Y-43499167D01*
X131685423Y-43502890D01*
X131614680Y-43608764D01*
X131614676Y-43608771D01*
X131543027Y-43781748D01*
X131543025Y-43781756D01*
X131506500Y-43965379D01*
X131506500Y-44152620D01*
X131543025Y-44336243D01*
X131543027Y-44336251D01*
X131614676Y-44509228D01*
X131614681Y-44509237D01*
X131618939Y-44515609D01*
X131639817Y-44582286D01*
X131621333Y-44649667D01*
X131569354Y-44696357D01*
X131515837Y-44708500D01*
X130318097Y-44708500D01*
X130251058Y-44688815D01*
X130230416Y-44672181D01*
X128757590Y-43199355D01*
X128757588Y-43199352D01*
X128638717Y-43080481D01*
X128638716Y-43080480D01*
X128541826Y-43024541D01*
X128501785Y-43001423D01*
X128349057Y-42960499D01*
X128190943Y-42960499D01*
X128183347Y-42960499D01*
X128183331Y-42960500D01*
X120977336Y-42960500D01*
X120910297Y-42940815D01*
X120864542Y-42888011D01*
X120853978Y-42849101D01*
X120844999Y-42761203D01*
X120844998Y-42761200D01*
X120835656Y-42733007D01*
X120789814Y-42594666D01*
X120697712Y-42445344D01*
X120573656Y-42321288D01*
X120455521Y-42248422D01*
X120424336Y-42229187D01*
X120424331Y-42229185D01*
X120422862Y-42228698D01*
X120257797Y-42174001D01*
X120257795Y-42174000D01*
X120155010Y-42163500D01*
X118604998Y-42163500D01*
X118604981Y-42163501D01*
X118502203Y-42174000D01*
X118502200Y-42174001D01*
X118335668Y-42229185D01*
X118335663Y-42229187D01*
X118186342Y-42321289D01*
X118062289Y-42445342D01*
X117970187Y-42594663D01*
X117970186Y-42594666D01*
X117915001Y-42761203D01*
X117915001Y-42761204D01*
X117915000Y-42761204D01*
X117904500Y-42863983D01*
X117904500Y-44164001D01*
X117904501Y-44164018D01*
X117915000Y-44266796D01*
X117915001Y-44266799D01*
X117970185Y-44433331D01*
X117970187Y-44433336D01*
X118062289Y-44582657D01*
X118186344Y-44706712D01*
X118341120Y-44802178D01*
X118387845Y-44854126D01*
X118399068Y-44923088D01*
X118371224Y-44987171D01*
X118363706Y-44995398D01*
X118224889Y-45134215D01*
X118099951Y-45306179D01*
X118003444Y-45495585D01*
X117937753Y-45697760D01*
X117907937Y-45886011D01*
X117904500Y-45907713D01*
X117904500Y-46120287D01*
X117937754Y-46330243D01*
X117994372Y-46504495D01*
X118003444Y-46532414D01*
X118099951Y-46721820D01*
X118224890Y-46893786D01*
X118375209Y-47044105D01*
X118375214Y-47044109D01*
X118540218Y-47163991D01*
X118582884Y-47219320D01*
X118588863Y-47288934D01*
X118556258Y-47350729D01*
X118540218Y-47364627D01*
X118375540Y-47484272D01*
X118375535Y-47484276D01*
X118225276Y-47634535D01*
X118225272Y-47634540D01*
X118100379Y-47806442D01*
X118003904Y-47995782D01*
X117938242Y-48197870D01*
X117938242Y-48197873D01*
X117927769Y-48264000D01*
X118975854Y-48264000D01*
X118937370Y-48330657D01*
X118905000Y-48451465D01*
X118905000Y-48576535D01*
X118937370Y-48697343D01*
X118975854Y-48764000D01*
X117927769Y-48764000D01*
X117938242Y-48830126D01*
X117938242Y-48830129D01*
X118003904Y-49032217D01*
X118100379Y-49221557D01*
X118225272Y-49393459D01*
X118225276Y-49393464D01*
X118375535Y-49543723D01*
X118375540Y-49543727D01*
X118540218Y-49663372D01*
X118582884Y-49718701D01*
X118588863Y-49788315D01*
X118556258Y-49850110D01*
X118540218Y-49864008D01*
X118375214Y-49983890D01*
X118375209Y-49983894D01*
X118224890Y-50134213D01*
X118099951Y-50306179D01*
X118003444Y-50495585D01*
X117937753Y-50697760D01*
X117924505Y-50781408D01*
X117904500Y-50907713D01*
X117904500Y-51120287D01*
X117937754Y-51330243D01*
X117966073Y-51417401D01*
X118003444Y-51532414D01*
X118099951Y-51721820D01*
X118224890Y-51893786D01*
X118375213Y-52044109D01*
X118547179Y-52169048D01*
X118547181Y-52169049D01*
X118547184Y-52169051D01*
X118736588Y-52265557D01*
X118938757Y-52331246D01*
X119148713Y-52364500D01*
X119148714Y-52364500D01*
X119611286Y-52364500D01*
X119611287Y-52364500D01*
X119821243Y-52331246D01*
X120023412Y-52265557D01*
X120212816Y-52169051D01*
X120379580Y-52047891D01*
X120384786Y-52044109D01*
X120384788Y-52044106D01*
X120384792Y-52044104D01*
X120535104Y-51893792D01*
X120535106Y-51893788D01*
X120535109Y-51893786D01*
X120625547Y-51769307D01*
X120660051Y-51721816D01*
X120660958Y-51720035D01*
X120680235Y-51682205D01*
X120728209Y-51631409D01*
X120790719Y-51614500D01*
X128604331Y-51614500D01*
X128604347Y-51614501D01*
X128611943Y-51614501D01*
X128770054Y-51614501D01*
X128770057Y-51614501D01*
X128922785Y-51573577D01*
X128972904Y-51544639D01*
X129059716Y-51494520D01*
X129171520Y-51382716D01*
X129171520Y-51382714D01*
X129181728Y-51372507D01*
X129181729Y-51372504D01*
X130895416Y-49658819D01*
X130956739Y-49625334D01*
X130983097Y-49622500D01*
X131519174Y-49622500D01*
X131586213Y-49642185D01*
X131624710Y-49681400D01*
X131659032Y-49737044D01*
X131659033Y-49737045D01*
X131778955Y-49856967D01*
X131778959Y-49856970D01*
X131923294Y-49945998D01*
X131923297Y-49945999D01*
X131923303Y-49946003D01*
X132084292Y-49999349D01*
X132183655Y-50009500D01*
X133230344Y-50009499D01*
X133230352Y-50009498D01*
X133230355Y-50009498D01*
X133284760Y-50003940D01*
X133329708Y-49999349D01*
X133490697Y-49946003D01*
X133635044Y-49856968D01*
X133754968Y-49737044D01*
X133766465Y-49718403D01*
X133818412Y-49671679D01*
X133872004Y-49659500D01*
X138166903Y-49659500D01*
X138233942Y-49679185D01*
X138254584Y-49695819D01*
X145912584Y-57353819D01*
X145946069Y-57415142D01*
X145941085Y-57484834D01*
X145899213Y-57540767D01*
X145833749Y-57565184D01*
X145824903Y-57565500D01*
X141525940Y-57565500D01*
X141485019Y-57576464D01*
X141485019Y-57576465D01*
X141459571Y-57583284D01*
X141373214Y-57606423D01*
X141373209Y-57606426D01*
X141236290Y-57685475D01*
X141236282Y-57685481D01*
X141124480Y-57797284D01*
X141124478Y-57797286D01*
X138451169Y-60470596D01*
X135804584Y-63117181D01*
X135743261Y-63150666D01*
X135716903Y-63153500D01*
X129459097Y-63153500D01*
X129392058Y-63133815D01*
X129371416Y-63117181D01*
X129287819Y-63033584D01*
X129254334Y-62972261D01*
X129251500Y-62945903D01*
X129251500Y-58847097D01*
X129271185Y-58780058D01*
X129287819Y-58759416D01*
X129458416Y-58588819D01*
X129519739Y-58555334D01*
X129546097Y-58552500D01*
X130923281Y-58552500D01*
X130990320Y-58572185D01*
X131033765Y-58620205D01*
X131053947Y-58659814D01*
X131053948Y-58659815D01*
X131178890Y-58831786D01*
X131329209Y-58982105D01*
X131329214Y-58982109D01*
X131494218Y-59101991D01*
X131536884Y-59157320D01*
X131542863Y-59226934D01*
X131510258Y-59288729D01*
X131494218Y-59302627D01*
X131329540Y-59422272D01*
X131329535Y-59422276D01*
X131179276Y-59572535D01*
X131179272Y-59572540D01*
X131054379Y-59744442D01*
X130957904Y-59933782D01*
X130892242Y-60135870D01*
X130892242Y-60135873D01*
X130881769Y-60202000D01*
X131929854Y-60202000D01*
X131891370Y-60268657D01*
X131859000Y-60389465D01*
X131859000Y-60514535D01*
X131891370Y-60635343D01*
X131929854Y-60702000D01*
X130881769Y-60702000D01*
X130892242Y-60768126D01*
X130892242Y-60768129D01*
X130957904Y-60970217D01*
X131054379Y-61159557D01*
X131179272Y-61331459D01*
X131179276Y-61331464D01*
X131329535Y-61481723D01*
X131329540Y-61481727D01*
X131501442Y-61606620D01*
X131690782Y-61703095D01*
X131892872Y-61768757D01*
X132084000Y-61799029D01*
X132084000Y-60856145D01*
X132150657Y-60894630D01*
X132271465Y-60927000D01*
X132396535Y-60927000D01*
X132517343Y-60894630D01*
X132584000Y-60856145D01*
X132584000Y-61799028D01*
X132775127Y-61768757D01*
X132977217Y-61703095D01*
X133166557Y-61606620D01*
X133338459Y-61481727D01*
X133338464Y-61481723D01*
X133488723Y-61331464D01*
X133488727Y-61331459D01*
X133613620Y-61159557D01*
X133710095Y-60970217D01*
X133775757Y-60768129D01*
X133775757Y-60768126D01*
X133786231Y-60702000D01*
X132738146Y-60702000D01*
X132776630Y-60635343D01*
X132809000Y-60514535D01*
X132809000Y-60389465D01*
X132776630Y-60268657D01*
X132738146Y-60202000D01*
X133786231Y-60202000D01*
X133775757Y-60135873D01*
X133775757Y-60135870D01*
X133710095Y-59933782D01*
X133613620Y-59744442D01*
X133488727Y-59572540D01*
X133488723Y-59572535D01*
X133338464Y-59422276D01*
X133338459Y-59422272D01*
X133173781Y-59302627D01*
X133131115Y-59247297D01*
X133125136Y-59177684D01*
X133157741Y-59115889D01*
X133173776Y-59101994D01*
X133338792Y-58982104D01*
X133489104Y-58831792D01*
X133489106Y-58831788D01*
X133489109Y-58831786D01*
X133614048Y-58659820D01*
X133614047Y-58659820D01*
X133614051Y-58659816D01*
X133710557Y-58470412D01*
X133776246Y-58268243D01*
X133809500Y-58058287D01*
X133809500Y-57845713D01*
X133776246Y-57635757D01*
X133710557Y-57433588D01*
X133614051Y-57244184D01*
X133614049Y-57244181D01*
X133614048Y-57244179D01*
X133489109Y-57072213D01*
X133350294Y-56933398D01*
X133316809Y-56872075D01*
X133321793Y-56802383D01*
X133363665Y-56746450D01*
X133372879Y-56740178D01*
X133378331Y-56736814D01*
X133378334Y-56736814D01*
X133527656Y-56644712D01*
X133651712Y-56520656D01*
X133743814Y-56371334D01*
X133798999Y-56204797D01*
X133809500Y-56102009D01*
X133809499Y-54801992D01*
X133798999Y-54699203D01*
X133743814Y-54532666D01*
X133651712Y-54383344D01*
X133527656Y-54259288D01*
X133378334Y-54167186D01*
X133211797Y-54112001D01*
X133211795Y-54112000D01*
X133109010Y-54101500D01*
X131558998Y-54101500D01*
X131558981Y-54101501D01*
X131456203Y-54112000D01*
X131456200Y-54112001D01*
X131289668Y-54167185D01*
X131289663Y-54167187D01*
X131140342Y-54259289D01*
X131016289Y-54383342D01*
X130924187Y-54532663D01*
X130924185Y-54532668D01*
X130869001Y-54699204D01*
X130869000Y-54699205D01*
X130864823Y-54740102D01*
X130838427Y-54804793D01*
X130781247Y-54844945D01*
X130741465Y-54851500D01*
X116712097Y-54851500D01*
X116645058Y-54831815D01*
X116624416Y-54815181D01*
X115825819Y-54016584D01*
X115792334Y-53955261D01*
X115789500Y-53928903D01*
X115789500Y-41321097D01*
X115809185Y-41254058D01*
X115825819Y-41233416D01*
X116671416Y-40387819D01*
X116732739Y-40354334D01*
X116759097Y-40351500D01*
X126318903Y-40351500D01*
X126385942Y-40371185D01*
G37*
%TD.AperFunction*%
%TA.AperFunction,Conductor*%
G36*
X156654594Y-43292185D02*
G01*
X156700349Y-43344989D01*
X156707330Y-43364409D01*
X156714092Y-43389650D01*
X156714096Y-43389659D01*
X156714097Y-43389663D01*
X156797155Y-43567781D01*
X156813965Y-43603830D01*
X156813967Y-43603834D01*
X156922281Y-43758521D01*
X156949501Y-43797396D01*
X156949506Y-43797402D01*
X157116597Y-43964493D01*
X157116603Y-43964498D01*
X157302158Y-44094425D01*
X157345783Y-44149002D01*
X157352977Y-44218500D01*
X157321454Y-44280855D01*
X157302158Y-44297575D01*
X157116597Y-44427505D01*
X156949505Y-44594597D01*
X156813965Y-44788169D01*
X156813964Y-44788171D01*
X156714098Y-45002335D01*
X156714094Y-45002344D01*
X156652938Y-45230586D01*
X156652936Y-45230596D01*
X156632341Y-45465999D01*
X156632341Y-45466000D01*
X156652936Y-45701403D01*
X156652938Y-45701413D01*
X156714094Y-45929655D01*
X156714096Y-45929659D01*
X156714097Y-45929663D01*
X156794004Y-46101023D01*
X156813965Y-46143830D01*
X156813967Y-46143834D01*
X156922281Y-46298521D01*
X156949501Y-46337396D01*
X156949506Y-46337402D01*
X157116597Y-46504493D01*
X157116603Y-46504498D01*
X157156471Y-46532414D01*
X157301815Y-46634185D01*
X157302594Y-46634730D01*
X157346219Y-46689307D01*
X157353413Y-46758805D01*
X157321890Y-46821160D01*
X157302595Y-46837880D01*
X157116922Y-46967890D01*
X157116920Y-46967891D01*
X156949891Y-47134920D01*
X156949886Y-47134926D01*
X156814400Y-47328420D01*
X156814399Y-47328422D01*
X156714570Y-47542507D01*
X156714567Y-47542513D01*
X156657364Y-47755999D01*
X156657364Y-47756000D01*
X157554988Y-47756000D01*
X157522075Y-47813007D01*
X157488000Y-47940174D01*
X157488000Y-48071826D01*
X157522075Y-48198993D01*
X157554988Y-48256000D01*
X156657364Y-48256000D01*
X156714567Y-48469486D01*
X156714570Y-48469492D01*
X156814399Y-48683578D01*
X156949894Y-48877082D01*
X157116917Y-49044105D01*
X157302595Y-49174119D01*
X157346219Y-49228696D01*
X157353412Y-49298195D01*
X157321890Y-49360549D01*
X157302595Y-49377269D01*
X157116594Y-49507508D01*
X156949505Y-49674597D01*
X156813965Y-49868169D01*
X156813964Y-49868171D01*
X156714098Y-50082335D01*
X156714094Y-50082344D01*
X156652938Y-50310586D01*
X156652936Y-50310596D01*
X156632341Y-50545999D01*
X156632341Y-50546000D01*
X156652936Y-50781403D01*
X156652938Y-50781413D01*
X156714094Y-51009655D01*
X156714096Y-51009659D01*
X156714097Y-51009663D01*
X156718000Y-51018032D01*
X156813965Y-51223830D01*
X156813967Y-51223834D01*
X156888473Y-51330239D01*
X156949501Y-51417396D01*
X156949506Y-51417402D01*
X157116597Y-51584493D01*
X157116603Y-51584498D01*
X157302158Y-51714425D01*
X157345783Y-51769002D01*
X157352977Y-51838500D01*
X157321454Y-51900855D01*
X157302158Y-51917575D01*
X157116597Y-52047505D01*
X156949505Y-52214597D01*
X156813965Y-52408169D01*
X156813964Y-52408171D01*
X156714098Y-52622335D01*
X156714094Y-52622344D01*
X156652938Y-52850586D01*
X156652936Y-52850596D01*
X156632341Y-53085999D01*
X156632341Y-53086000D01*
X156652936Y-53321403D01*
X156652938Y-53321413D01*
X156714094Y-53549655D01*
X156714096Y-53549659D01*
X156714097Y-53549663D01*
X156797155Y-53727781D01*
X156813965Y-53763830D01*
X156813967Y-53763834D01*
X156922281Y-53918521D01*
X156949501Y-53957396D01*
X156949506Y-53957402D01*
X157116597Y-54124493D01*
X157116603Y-54124498D01*
X157302158Y-54254425D01*
X157345783Y-54309002D01*
X157352977Y-54378500D01*
X157321454Y-54440855D01*
X157302158Y-54457575D01*
X157116597Y-54587505D01*
X156949505Y-54754597D01*
X156813965Y-54948169D01*
X156813964Y-54948171D01*
X156714098Y-55162335D01*
X156714094Y-55162344D01*
X156652938Y-55390586D01*
X156652936Y-55390596D01*
X156632341Y-55625999D01*
X156632341Y-55626000D01*
X156652936Y-55861403D01*
X156652938Y-55861413D01*
X156714094Y-56089655D01*
X156714096Y-56089659D01*
X156714097Y-56089663D01*
X156767784Y-56204795D01*
X156813965Y-56303830D01*
X156813967Y-56303834D01*
X156861233Y-56371336D01*
X156949501Y-56497396D01*
X156949506Y-56497402D01*
X157116597Y-56664493D01*
X157116603Y-56664498D01*
X157302158Y-56794425D01*
X157345783Y-56849002D01*
X157352977Y-56918500D01*
X157321454Y-56980855D01*
X157302158Y-56997575D01*
X157116597Y-57127505D01*
X156949506Y-57294596D01*
X156813965Y-57488170D01*
X156813962Y-57488175D01*
X156811289Y-57493909D01*
X156765115Y-57546346D01*
X156698909Y-57565500D01*
X147874098Y-57565500D01*
X147807059Y-57545815D01*
X147786417Y-57529181D01*
X147498216Y-57240981D01*
X138954590Y-48697355D01*
X138954588Y-48697352D01*
X138835717Y-48578481D01*
X138835716Y-48578480D01*
X138743610Y-48525303D01*
X138743609Y-48525302D01*
X138698790Y-48499425D01*
X138698787Y-48499423D01*
X138637693Y-48483053D01*
X138546057Y-48458499D01*
X138387943Y-48458499D01*
X138380347Y-48458499D01*
X138380331Y-48458500D01*
X133897561Y-48458500D01*
X133830522Y-48438815D01*
X133784767Y-48386011D01*
X133774823Y-48316853D01*
X133794457Y-48265611D01*
X133798880Y-48258989D01*
X133870492Y-48086103D01*
X133870493Y-48086100D01*
X133875884Y-48059000D01*
X132873988Y-48059000D01*
X132891205Y-48049060D01*
X132947060Y-47993205D01*
X132986556Y-47924796D01*
X133007000Y-47848496D01*
X133007000Y-47769504D01*
X132986556Y-47693204D01*
X132947060Y-47624795D01*
X132891205Y-47568940D01*
X132873988Y-47559000D01*
X133875884Y-47559000D01*
X133875884Y-47558999D01*
X133870493Y-47531899D01*
X133870492Y-47531896D01*
X133798880Y-47359008D01*
X133798877Y-47359003D01*
X133794458Y-47352389D01*
X133773582Y-47285711D01*
X133792068Y-47218331D01*
X133844048Y-47171642D01*
X133897562Y-47159500D01*
X150077331Y-47159500D01*
X150077347Y-47159501D01*
X150084943Y-47159501D01*
X150243054Y-47159501D01*
X150243057Y-47159501D01*
X150395785Y-47118577D01*
X150409420Y-47110704D01*
X150446091Y-47089533D01*
X150446105Y-47089524D01*
X150446114Y-47089519D01*
X150532716Y-47039520D01*
X150644520Y-46927716D01*
X150644520Y-46927714D01*
X150654724Y-46917511D01*
X150654727Y-46917506D01*
X154263416Y-43308819D01*
X154324739Y-43275334D01*
X154351097Y-43272500D01*
X156587555Y-43272500D01*
X156654594Y-43292185D01*
G37*
%TD.AperFunction*%
%TA.AperFunction,Conductor*%
G36*
X129346942Y-46634185D02*
G01*
X129367584Y-46650819D01*
X129690139Y-46973374D01*
X129690149Y-46973385D01*
X129694479Y-46977715D01*
X129694480Y-46977716D01*
X129806284Y-47089520D01*
X129806286Y-47089521D01*
X129806290Y-47089524D01*
X129856610Y-47118576D01*
X129856615Y-47118578D01*
X129943209Y-47168574D01*
X129943210Y-47168574D01*
X129943215Y-47168577D01*
X130095943Y-47209500D01*
X130254057Y-47209500D01*
X131491469Y-47209500D01*
X131558508Y-47229185D01*
X131604263Y-47281989D01*
X131614207Y-47351147D01*
X131606030Y-47380952D01*
X131543508Y-47531892D01*
X131543506Y-47531899D01*
X131538115Y-47558999D01*
X131538116Y-47559000D01*
X132540012Y-47559000D01*
X132522795Y-47568940D01*
X132466940Y-47624795D01*
X132427444Y-47693204D01*
X132407000Y-47769504D01*
X132407000Y-47848496D01*
X132427444Y-47924796D01*
X132466940Y-47993205D01*
X132522795Y-48049060D01*
X132540012Y-48059000D01*
X131538116Y-48059000D01*
X131543506Y-48086100D01*
X131543507Y-48086103D01*
X131611415Y-48250047D01*
X131618884Y-48319517D01*
X131587609Y-48381996D01*
X131527520Y-48417648D01*
X131496854Y-48421500D01*
X130603940Y-48421500D01*
X130563019Y-48432464D01*
X130563019Y-48432465D01*
X130539321Y-48438815D01*
X130451214Y-48462423D01*
X130451209Y-48462426D01*
X130314290Y-48541475D01*
X130314282Y-48541481D01*
X130202478Y-48653286D01*
X128478584Y-50377181D01*
X128417261Y-50410666D01*
X128390903Y-50413500D01*
X120790719Y-50413500D01*
X120723680Y-50393815D01*
X120680235Y-50345795D01*
X120660052Y-50306185D01*
X120660051Y-50306184D01*
X120535109Y-50134213D01*
X120384790Y-49983894D01*
X120384785Y-49983890D01*
X120219781Y-49864008D01*
X120177115Y-49808678D01*
X120171136Y-49739065D01*
X120203741Y-49677270D01*
X120219781Y-49663371D01*
X120384466Y-49543721D01*
X120534723Y-49393464D01*
X120534727Y-49393459D01*
X120659620Y-49221557D01*
X120756095Y-49032217D01*
X120821757Y-48830129D01*
X120821757Y-48830126D01*
X120832231Y-48764000D01*
X119784146Y-48764000D01*
X119822630Y-48697343D01*
X119855000Y-48576535D01*
X119855000Y-48451465D01*
X119822630Y-48330657D01*
X119784146Y-48264000D01*
X120832231Y-48264000D01*
X120821757Y-48197873D01*
X120821757Y-48197870D01*
X120756095Y-47995782D01*
X120659620Y-47806442D01*
X120534727Y-47634540D01*
X120534723Y-47634535D01*
X120384464Y-47484276D01*
X120384459Y-47484272D01*
X120219781Y-47364627D01*
X120177115Y-47309297D01*
X120171136Y-47239684D01*
X120203741Y-47177889D01*
X120219776Y-47163994D01*
X120384792Y-47044104D01*
X120535104Y-46893792D01*
X120535106Y-46893788D01*
X120535109Y-46893786D01*
X120633177Y-46758805D01*
X120660051Y-46721816D01*
X120660349Y-46721230D01*
X120680235Y-46682205D01*
X120728209Y-46631409D01*
X120790719Y-46614500D01*
X129279903Y-46614500D01*
X129346942Y-46634185D01*
G37*
%TD.AperFunction*%
%TD*%
M02*
