M48
; DRILL file {KiCad 8.0.7} date 2025-01-03T13:54:33+0700
; FORMAT={-:-/ absolute / inch / decimal}
; #@! TF.CreationDate,2025-01-03T13:54:33+07:00
; #@! TF.GenerationSoftware,Kicad,Pcbnew,8.0.7
; #@! TF.FileFunction,Plated,1,2,PTH
FMAT,2
INCH
; #@! TA.AperFunction,Plated,PTH,ViaDrill
T1C0.0118
; #@! TA.AperFunction,Plated,PTH,ComponentDrill
T2C0.0236
; #@! TA.AperFunction,Plated,PTH,ComponentDrill
T3C0.0374
; #@! TA.AperFunction,Plated,PTH,ComponentDrill
T4C0.0394
%
G90
G05
T1
X5.3175Y-2.3775
T2
X5.2247Y-1.4885
X5.2247Y-1.5378
X5.2247Y-1.587
X5.2247Y-1.6362
X5.2247Y-1.6854
X5.2247Y-1.7346
X5.2247Y-1.7838
X5.2247Y-1.833
X5.2247Y-1.8822
X5.2247Y-1.9315
T3
X4.7Y-1.7131
X4.7Y-1.8116
X4.7Y-1.91
X4.7Y-2.0084
X5.21Y-2.1831
X5.21Y-2.2816
X5.21Y-2.38
X5.215Y-2.7181
X5.215Y-2.8166
X5.215Y-2.915
T4
X6.22Y-1.49
X6.22Y-1.59
X6.22Y-1.69
X6.22Y-1.79
X6.22Y-1.89
X6.22Y-1.99
X6.22Y-2.09
X6.22Y-2.19
X6.22Y-2.29
X6.22Y-2.39
X6.22Y-2.49
X6.22Y-2.59
X6.22Y-2.69
X6.22Y-2.79
X6.22Y-2.89
X6.22Y-2.99
X6.22Y-3.09
X6.22Y-3.19
X6.22Y-3.29
X6.22Y-3.39
X6.32Y-1.49
X6.32Y-1.59
X6.32Y-1.69
X6.32Y-1.79
X6.32Y-1.89
X6.32Y-1.99
X6.32Y-2.09
X6.32Y-2.19
X6.32Y-2.29
X6.32Y-2.39
X6.32Y-2.49
X6.32Y-2.59
X6.32Y-2.69
X6.32Y-2.79
X6.32Y-2.89
X6.32Y-2.99
X6.32Y-3.09
X6.32Y-3.19
X6.32Y-3.29
X6.32Y-3.39
M30
